<?xml version="1.0" encoding="utf-8"?>
<!-- Generator: Adobe Illustrator 19.0.0, SVG Export Plug-In . SVG Version: 6.00 Build 0)  -->
<svg version="1.1" id="Layer_1" xmlns="http://www.w3.org/2000/svg" xmlns:xlink="http://www.w3.org/1999/xlink" x="0px" y="0px"
	 viewBox="0 0 1366 746" style="enable-background:new 0 0 1366 768;" xml:space="preserve" preserveAspectRatio="none">
<style type="text/css">
	.st0{fill:#042E3D;}
	.st1{fill:url(#XMLID_4_);}
	.st2{display:none;}
	.st3{display:inline;opacity:0.15;fill:#FFF6EB;enable-background:new    ;}
	.st4{opacity:0.54;}
	.st5{opacity:0.15;fill:#FFF6EB;enable-background:new    ;}
	.st6{display:inline;}
	.st7{fill:url(#XMLID_5_);}
	.st8{fill:#161616;}
	.st9{fill:#58595B;}
	.st10{fill:#232323;}
	.st11{fill:#BCBCBC;}
	.st12{fill:#131D42;stroke:#000000;stroke-miterlimit:10;}
	.st13{fill:#2D2D2D;}
	.st14{fill:#272828;}
	.st15{fill:#9E0107;}
	.st16{display:inline;fill:#262626;}
	.st17{display:inline;fill:#333333;}
	.st18{display:inline;fill:#A5A8A8;}
	.st19{fill:#262626;}
	.st20{fill:#333333;}
	.st21{fill:#A5A8A8;}
</style>
<g id="background">
	<g id="Layer_1_copy">
		<g id="Layer_47">
			<g id="Layer_48">
				<g id="Road_1_">
					<rect id="XMLID_5214_" y="-0.4" class="st0" width="1366" height="768"/>
					<linearGradient id="XMLID_4_" gradientUnits="userSpaceOnUse" x1="683" y1="767.6" x2="683" y2="-0.4">
						<stop  offset="0" style="stop-color:#FFFFFF;stop-opacity:0.3"/>
						<stop  offset="1" style="stop-color:#000000;stop-opacity:0.3"/>
					</linearGradient>
					<rect id="XMLID_26_" y="-0.4" class="st1" width="1366" height="768"/>
					<g id="clouds_3_" class="st2">
						<path id="XMLID_5213_" class="st3" d="M1364.5,80.2c-40.1,0-72.7,32.5-72.7,72.7c0,5.7,0.7,11.2,1.9,16.4
							c-4.2-1.9-8.8-2.9-13.7-2.9c-17.6,0-32.1,13.5-33.7,30.8c-6.8-4.4-14.9-6.9-23.6-6.9c-24.2,0-43.8,19.6-43.8,43.8
							c0,11.2,4.2,21.4,11.1,29.1c-13.1,1.5-23.5,11.5-25.7,24.3c-7.1-6-16.3-9.6-26.4-9.6c-9.3,0-17.8,3.1-24.7,8.3
							c-5-9.2-14.7-15.5-25.9-15.5c-16.2,0-29.4,13.2-29.4,29.4c0,0.1,0,0.2,0,0.3c-1.4-0.2-2.9-0.3-4.4-0.3
							c-13.5,0-25.1,7.9-30.5,19.3c-8.4-7.8-19.7-12.5-32.1-12.5c-26.1,0-47.3,21.2-47.3,47.3c0,7.4,1.7,14.4,4.7,20.7
							c-1.6-0.2-3.1-0.4-4.7-0.4c-18.7,0-33.8,15.1-33.8,33.8c0,8.6,3.2,16.5,8.6,22.4c-9.8,3.6-17.5,11.7-20.6,21.7
							c-7.8-8.2-18.9-13.2-31.1-13.2c-5.9,0-11.6,1.2-16.7,3.4c-10-9.8-23.7-15.9-38.9-15.9c-11.4,0-22.1,3.5-30.9,9.4
							c-7.5-5.1-16.6-8-26.4-8c-4.9,0-9.5,0.7-14,2.1c-3.1-23.1-22.9-41-46.9-41c-26.1,0-47.3,21.2-47.3,47.3c0,2.3,0.2,4.6,0.5,6.8
							c-0.2,0-0.3,0-0.5,0c-4.9,0-9.7,0.8-14.1,2.1c0.8-2.8,1.2-5.8,1.2-8.9c0-15.3-10-28.3-23.8-32.7c0-0.6,0-1.1,0-1.7
							c0-30.7-24.9-55.6-55.6-55.6c-15.1,0-28.9,6.1-38.9,15.9c-5.1-2.2-10.8-3.4-16.7-3.4c-12.2,0-23.2,5.1-31.1,13.2
							c-3.1-10.1-10.8-18.1-20.6-21.7c5.3-6,8.6-13.8,8.6-22.4c0-18.7-15.1-33.8-33.8-33.8c-1.6,0-3.2,0.2-4.7,0.4
							c3-6.2,4.7-13.2,4.7-20.7c0-26.1-21.2-47.3-47.3-47.3c-12.4,0-23.6,4.7-32.1,12.5c-5.4-11.4-17-19.3-30.5-19.3
							c-1.5,0-3,0.1-4.4,0.3c0-0.1,0-0.2,0-0.3c0-16.2-13.2-29.4-29.4-29.4c-11.2,0-21,6.3-25.9,15.5c-6.9-5.2-15.4-8.3-24.7-8.3
							c-10.1,0-19.3,3.6-26.4,9.6c-2.2-12.8-12.6-22.9-25.7-24.3c6.9-7.7,11.1-17.9,11.1-29.1c0-24.2-19.6-43.8-43.8-43.8
							c-8.7,0-16.8,2.6-23.6,6.9c-1.5-17.3-16-30.8-33.7-30.8c-4.9,0-9.5,1.1-13.7,2.9c1.2-5.3,1.9-10.8,1.9-16.4
							C72.7,32.5,40.1,0,0,0v710.5c0.4,3,0.6,4.6,0.6,4.6h1365.9V225.6V80.3C1365.8,80.3,1365.2,80.2,1364.5,80.2z"/>
						<path id="XMLID_5212_" class="st3" d="M1366.4,181.2c-31.2,2-55.9,27.9-55.9,59.6c0,4.6,0.5,9.1,1.5,13.4
							c-4.4-2.3-9.4-3.6-14.7-3.6c-18,0-32.5,14.6-32.5,32.5c0,0.6,0.1,1.2,0.1,1.9c-4.1-1.2-8.4-1.9-12.9-1.9
							c-25,0-45.3,20.3-45.3,45.4c0,15.9,8.2,29.9,20.6,38c-9.3,4.2-15.7,13.5-15.7,24.3c0,0.1,0,0.3,0,0.4
							c-1.6-0.3-3.2-0.4-4.9-0.4c-7.8,0-14.9,2.8-20.4,7.5c-5.5-4.7-12.6-7.5-20.4-7.5c-17.5,0-31.7,14.2-31.7,31.7
							c0,6.9,2.3,13.3,6,18.6c-6.3,3.8-11.1,9.8-13.5,16.8c-3.6-1.8-7.6-2.8-11.9-2.8c-13.6,0-24.8,10.2-26.4,23.4
							c-8.3-9.3-20.4-15.1-33.8-15.1c-25,0-45.3,20.3-45.3,45.4c0,6.8,1.5,13.3,4.2,19.1c-1.4-0.2-2.8-0.4-4.2-0.4
							c-13.2,0-24.2,9.7-26.2,22.3c-6.3-4.7-14.2-7.4-22.7-7.4c-13.3,0-25,6.8-31.9,17c-5.4-5.2-12.7-8.4-20.7-8.4
							c-16.4,0-29.7,13.3-29.7,29.7c0,2.5,0.3,4.9,0.9,7.1c-4.8-3.3-10.6-5.3-16.9-5.3c-16.4,0-29.7,13.3-29.7,29.7l0,0
							c-21,0-38.6,14.1-44.1,33.4c-9.1-11.5-23.2-19-39-19c-27.4,0-49.6,22.2-49.6,49.6c0,0.7,0,1.4,0.1,2.1
							c-3.3-1.4-6.9-2.1-10.6-2.1c-1,0-2,0.1-3,0.2c-1-0.1-2-0.2-3-0.2c-3.8,0-7.3,0.8-10.6,2.1c0-0.7,0.1-1.4,0.1-2.1
							c0-27.4-22.2-49.6-49.6-49.6c-15.8,0-29.9,7.4-39,19c-5.4-19.2-23.1-33.4-44.1-33.4l0,0c0-16.4-13.3-29.7-29.7-29.7
							c-6.3,0-12.1,2-16.9,5.3c0.6-2.3,0.9-4.7,0.9-7.1c0-16.4-13.3-29.7-29.7-29.7c-8.1,0-15.4,3.2-20.7,8.4
							c-6.9-10.3-18.6-17-31.9-17c-8.5,0-16.3,2.8-22.7,7.4c-2.1-12.6-13-22.3-26.2-22.3c-1.4,0-2.8,0.1-4.2,0.4
							c2.7-5.8,4.2-12.3,4.2-19.1c0-25-20.3-45.4-45.3-45.4c-13.4,0-25.5,5.8-33.8,15.1c-1.6-13.2-12.8-23.4-26.4-23.4
							c-4.3,0-8.3,1-11.9,2.8c-2.4-7.1-7.2-13-13.5-16.9c3.8-5.2,6-11.6,6-18.6c0-17.5-14.2-31.7-31.7-31.7
							c-7.8,0-14.9,2.8-20.4,7.5c-5.5-4.7-12.6-7.5-20.4-7.5c-1.7,0-3.3,0.2-4.9,0.4c0-0.1,0-0.3,0-0.4c0-10.8-6.5-20.1-15.7-24.3
							c12.4-8.1,20.6-22.1,20.6-38c0-25-20.3-45.4-45.3-45.4c-4.5,0-8.8,0.7-12.9,1.9c0-0.6,0.1-1.2,0.1-1.9
							c0-18-14.6-32.5-32.5-32.5c-5.3,0-10.3,1.3-14.7,3.6c1-4.3,1.5-8.8,1.5-13.4c0-33-26.8-59.8-59.8-59.8c-0.5,0-0.9,0-1.4,0
							v550.4h682.9h6h677.6L1366.4,181.2L1366.4,181.2z"/>
					</g>
				</g>
				<g id="clouds_1_" class="st4">
					<path id="XMLID_2_" class="st5" d="M1364.1,80.2c-40.1,0-72.7,32.5-72.7,72.7c0,5.7,0.7,11.2,1.9,16.4
						c-4.2-1.9-8.8-2.9-13.7-2.9c-17.6,0-32.1,13.5-33.7,30.8c-6.8-4.4-14.9-6.9-23.6-6.9c-24.2,0-43.8,19.6-43.8,43.8
						c0,11.2,4.2,21.4,11.1,29.1c-13.1,1.5-23.5,11.5-25.7,24.3c-7.1-6-16.3-9.6-26.4-9.6c-9.3,0-17.8,3.1-24.7,8.3
						c-5-9.2-14.7-15.5-25.9-15.5c-16.2,0-29.4,13.2-29.4,29.4c0,0.1,0,0.2,0,0.3c-1.4-0.2-2.9-0.3-4.4-0.3
						c-13.5,0-25.1,7.9-30.5,19.3c-8.4-7.8-19.7-12.5-32.1-12.5c-26.1,0-47.3,21.2-47.3,47.3c0,7.4,1.7,14.4,4.7,20.7
						c-1.6-0.2-3.1-0.4-4.7-0.4c-18.7,0-33.8,15.1-33.8,33.8c0,8.6,3.2,16.5,8.6,22.4c-9.8,3.6-17.5,11.7-20.6,21.7
						c-7.8-8.2-18.9-13.2-31.1-13.2c-5.9,0-11.6,1.2-16.7,3.4c-10-9.8-23.7-15.9-38.9-15.9c-11.4,0-22.1,3.5-30.9,9.4
						c-7.5-5.1-16.6-8-26.4-8c-4.9,0-9.5,0.7-14,2.1c-3.1-23.1-22.9-41-46.9-41c-26.1,0-47.3,21.2-47.3,47.3c0,2.3,0.2,4.6,0.5,6.8
						c-0.2,0-0.3,0-0.5,0c-4.9,0-9.7,0.8-14.1,2.1c0.8-2.8,1.2-5.8,1.2-8.9c0-15.3-10-28.3-23.8-32.7c0-0.6,0-1.1,0-1.7
						c0-30.7-24.9-55.6-55.6-55.6c-15.1,0-28.9,6.1-38.9,15.9c-5.1-2.2-10.8-3.4-16.7-3.4c-12.2,0-23.2,5.1-31.1,13.2
						c-3.1-10.1-10.8-18.1-20.6-21.7c5.3-6,8.6-13.8,8.6-22.4c0-18.7-15.1-33.8-33.8-33.8c-1.6,0-3.2,0.2-4.7,0.4
						c3-6.2,4.7-13.2,4.7-20.7c0-26.1-21.2-47.3-47.3-47.3c-12.4,0-23.6,4.7-32.1,12.5c-5.4-11.4-17-19.3-30.5-19.3
						c-1.5,0-3,0.1-4.4,0.3c0-0.1,0-0.2,0-0.3c0-16.2-13.2-29.4-29.4-29.4c-11.2,0-21,6.3-25.9,15.5c-6.9-5.2-15.4-8.3-24.7-8.3
						c-10.1,0-19.3,3.6-26.4,9.6c-2.2-12.8-12.6-22.9-25.7-24.3c6.9-7.7,11.1-17.9,11.1-29.1c0-24.2-19.6-43.8-43.8-43.8
						c-8.7,0-16.8,2.6-23.6,6.9c-1.5-17.3-16-30.8-33.7-30.8c-4.9,0-9.5,1.1-13.7,2.9c1.2-5.3,1.9-10.8,1.9-16.4
						C72.3,32.5,39.7,0-0.4,0v710.5c0.4,3,0.6,4.6,0.6,4.6h1365.9V225.6V80.3C1365.4,80.3,1364.8,80.2,1364.1,80.2z"/>
					<path id="XMLID_1_" class="st5" d="M1366,181.2c-31.2,2-55.9,27.9-55.9,59.6c0,4.6,0.5,9.1,1.5,13.4c-4.4-2.3-9.4-3.6-14.7-3.6
						c-18,0-32.5,14.6-32.5,32.5c0,0.6,0.1,1.2,0.1,1.9c-4.1-1.2-8.4-1.9-12.9-1.9c-25,0-45.3,20.3-45.3,45.4
						c0,15.9,8.2,29.9,20.6,38c-9.3,4.2-15.7,13.5-15.7,24.3c0,0.1,0,0.3,0,0.4c-1.6-0.3-3.2-0.4-4.9-0.4c-7.8,0-14.9,2.8-20.4,7.5
						c-5.5-4.7-12.6-7.5-20.4-7.5c-17.5,0-31.7,14.2-31.7,31.7c0,6.9,2.3,13.3,6,18.6c-6.3,3.8-11.1,9.8-13.5,16.8
						c-3.6-1.8-7.6-2.8-11.9-2.8c-13.6,0-24.8,10.2-26.4,23.4c-8.3-9.3-20.4-15.1-33.8-15.1c-25,0-45.3,20.3-45.3,45.4
						c0,6.8,1.5,13.3,4.2,19.1c-1.4-0.2-2.8-0.4-4.2-0.4c-13.2,0-24.2,9.7-26.2,22.3c-6.3-4.7-14.2-7.4-22.7-7.4
						c-13.3,0-25,6.8-31.9,17c-5.4-5.2-12.7-8.4-20.7-8.4c-16.4,0-29.7,13.3-29.7,29.7c0,2.5,0.3,4.9,0.9,7.1
						c-4.8-3.3-10.6-5.3-16.9-5.3c-16.4,0-29.7,13.3-29.7,29.7l0,0c-21,0-38.6,14.1-44.1,33.4c-9.1-11.5-23.2-19-39-19
						c-27.4,0-49.6,22.2-49.6,49.6c0,0.7,0,1.4,0.1,2.1c-3.3-1.4-6.9-2.1-10.6-2.1c-1,0-2,0.1-3,0.2c-1-0.1-2-0.2-3-0.2
						c-3.8,0-7.3,0.8-10.6,2.1c0-0.7,0.1-1.4,0.1-2.1c0-27.4-22.2-49.6-49.6-49.6c-15.8,0-29.9,7.4-39,19
						c-5.4-19.2-23.1-33.4-44.1-33.4l0,0c0-16.4-13.3-29.7-29.7-29.7c-6.3,0-12.1,2-16.9,5.3c0.6-2.3,0.9-4.7,0.9-7.1
						c0-16.4-13.3-29.7-29.7-29.7c-8.1,0-15.4,3.2-20.7,8.4c-6.9-10.3-18.6-17-31.9-17c-8.5,0-16.3,2.8-22.7,7.4
						c-2.1-12.6-13-22.3-26.2-22.3c-1.4,0-2.8,0.1-4.2,0.4c2.7-5.8,4.2-12.3,4.2-19.1c0-25-20.3-45.4-45.3-45.4
						c-13.4,0-25.5,5.8-33.8,15.1c-1.6-13.2-12.8-23.4-26.4-23.4c-4.3,0-8.3,1-11.9,2.8c-2.4-7.1-7.2-13-13.5-16.9
						c3.8-5.2,6-11.6,6-18.6c0-17.5-14.2-31.7-31.7-31.7c-7.8,0-14.9,2.8-20.4,7.5c-5.5-4.7-12.6-7.5-20.4-7.5
						c-1.7,0-3.3,0.2-4.9,0.4c0-0.1,0-0.3,0-0.4c0-10.8-6.5-20.1-15.7-24.3c12.4-8.1,20.6-22.1,20.6-38c0-25-20.3-45.4-45.3-45.4
						c-4.5,0-8.8,0.7-12.9,1.9c0-0.6,0.1-1.2,0.1-1.9c0-18-14.6-32.5-32.5-32.5c-5.3,0-10.3,1.3-14.7,3.6c1-4.3,1.5-8.8,1.5-13.4
						c0-33-26.8-59.8-59.8-59.8c-0.5,0-0.9,0-1.4,0v550.4h682.9h6h677.6L1366,181.2L1366,181.2z"/>
				</g>
			</g>
			<g id="Moon" class="st2">
				<g class="st6">
					<g id="XMLID_5209_">
						<g>
							
								<radialGradient id="XMLID_5_" cx="234.4702" cy="494.8385" r="137.4712" gradientTransform="matrix(1 0 0 -1 0 768)" gradientUnits="userSpaceOnUse">
								<stop  offset="0" style="stop-color:#FFFFFF"/>
								<stop  offset="0.9479" style="stop-color:#FFFFFF;stop-opacity:0.4233"/>
								<stop  offset="0.9862" style="stop-color:#FFFFFF;stop-opacity:0.4"/>
							</radialGradient>
							<circle id="XMLID_5210_" class="st7" cx="228.6" cy="297.6" r="109.4"/>
						</g>
					</g>
				</g>
			</g>
		</g>
		<g id="Layer_44">
			<g id="Road_2_">
				<g id="XMLID_5193_">
					<rect id="XMLID_5206_" y="658" class="st8" width="1366" height="111.7"/>
					<rect id="XMLID_5205_" y="674" width="1366" height="96.1"/>
					<g id="XMLID_5194_">
						<path id="XMLID_5204_" class="st9" d="M98.5,716.8c0,1.8-1.3,3.3-2.8,3.3H35.3c-1.6,0-2.8-1.5-2.8-3.3l0,0
							c0-1.8,1.3-3.3,2.8-3.3h60.4C97.2,713.5,98.5,715,98.5,716.8L98.5,716.8z"/>
						<path id="XMLID_5203_" class="st9" d="M234.7,716.8c0,1.8-1.3,3.3-2.8,3.3h-60.4c-1.6,0-2.8-1.5-2.8-3.3l0,0
							c0-1.8,1.3-3.3,2.8-3.3h60.4C233.5,713.5,234.7,715,234.7,716.8L234.7,716.8z"/>
						<path id="XMLID_5202_" class="st9" d="M371,716.8c0,1.8-1.3,3.3-2.8,3.3h-60.4c-1.6,0-2.8-1.5-2.8-3.3l0,0
							c0-1.8,1.3-3.3,2.8-3.3h60.4C369.8,713.5,371,715,371,716.8L371,716.8z"/>
						<path id="XMLID_5201_" class="st9" d="M507.3,716.8c0,1.8-1.3,3.3-2.8,3.3h-60.4c-1.6,0-2.8-1.5-2.8-3.3l0,0
							c0-1.8,1.3-3.3,2.8-3.3h60.4C506,713.5,507.3,715,507.3,716.8L507.3,716.8z"/>
						<path id="XMLID_5200_" class="st9" d="M643.6,716.8c0,1.8-1.3,3.3-2.8,3.3h-60.4c-1.6,0-2.8-1.5-2.8-3.3l0,0
							c0-1.8,1.3-3.3,2.8-3.3h60.4C642.3,713.5,643.6,715,643.6,716.8L643.6,716.8z"/>
						<path id="XMLID_5199_" class="st9" d="M779.9,716.8c0,1.8-1.3,3.3-2.8,3.3h-60.4c-1.6,0-2.8-1.5-2.8-3.3l0,0
							c0-1.8,1.3-3.3,2.8-3.3h60.4C778.6,713.5,779.9,715,779.9,716.8L779.9,716.8z"/>
						<path id="XMLID_5198_" class="st9" d="M916.2,716.8c0,1.8-1.3,3.3-2.8,3.3H853c-1.6,0-2.8-1.5-2.8-3.3l0,0
							c0-1.8,1.3-3.3,2.8-3.3h60.4C914.9,713.5,916.2,715,916.2,716.8L916.2,716.8z"/>
						<path id="XMLID_5197_" class="st9" d="M1052.4,716.8c0,1.8-1.3,3.3-2.8,3.3h-60.4c-1.6,0-2.8-1.5-2.8-3.3l0,0
							c0-1.8,1.3-3.3,2.8-3.3h60.4C1051.2,713.5,1052.4,715,1052.4,716.8L1052.4,716.8z"/>
						<path id="XMLID_5196_" class="st9" d="M1188.7,716.8c0,1.8-1.3,3.3-2.8,3.3h-60.4c-1.6,0-2.8-1.5-2.8-3.3l0,0
							c0-1.8,1.3-3.3,2.8-3.3h60.4C1187.5,713.5,1188.7,715,1188.7,716.8L1188.7,716.8z"/>
						<path id="XMLID_5195_" class="st9" d="M1325,716.8c0,1.8-1.3,3.3-2.8,3.3h-60.4c-1.6,0-2.8-1.5-2.8-3.3l0,0
							c0-1.8,1.3-3.3,2.8-3.3h60.4C1323.7,713.5,1325,715,1325,716.8L1325,716.8z"/>
					</g>
				</g>
			</g>
		</g>
		<g id="Layer_43">
			<g id="Footpath_1_">
				<rect id="XMLID_5170_" y="606" class="st10" width="1366.4" height="52"/>
			</g>
		</g>
	</g>
</g>

<g id="car">
	<g id="Layer_5">
		<polyline points="400.7,688.4 408.3,688.4 453.6,688.4 444.4,657.8 405.7,659.7 400.7,687.6 		"/>
	</g>
	<g id="Layer_5_copy">
		<polyline points="690.3,688.4 698,688.4 743.2,688.4 734,657.8 695.3,659.7 690.3,687.6 		"/>
	</g>
	<g>
		<g>
			<path class="st11" d="M355.9,645.6l40.7-6.4l27.9-21.2h216.2l44.9,24.7l71.6,9.1c0,0,7.9,12.7,4.9,23.3c0,0,12.1,2.8-6.1,25.4
				h-22.6c0.1-0.7,0.1-1.4,0.1-2.1c0-15.2-10.6-27.5-23.7-27.5c-13.1,0-23.7,12.3-23.7,27.5c0,0.7,0.1,1.5,0.1,2.1H425.6
				c0.1-0.7,0.1-1.4,0.1-2.1c0-15.2-10.6-27.5-23.7-27.5c-13.1,0-23.7,12.3-23.7,27.5c0,0.7,0.1,1.5,0.1,2.1h-28.6
				C349.8,700.6,328.6,675.9,355.9,645.6z"/>
		</g>
		<path class="st12" d="M671,650.6h-57.7l-6.1-24H637C637.1,626.6,664.4,640,671,650.6z"/>
		<path class="st12" d="M403.7,650.6h52.5l5.5-24h-27.1C434.6,626.6,409.7,640,403.7,650.6z"/>
		<polygon class="st12" points="604.8,626.6 608.5,650.6 461.5,650.6 465.8,627.3 		"/>
		<rect x="623.1" y="684.4" class="st13" width="56.5" height="1.4"/>
		<rect x="428.8" y="684.4" class="st13" width="185.2" height="1.4"/>
		<rect x="618.2" y="656.2" class="st14" width="6.1" height="3.6"/>
		<rect x="411.1" y="656.2" class="st14" width="6.1" height="3.6"/>
		<path d="M357.7,648.5c0,0,3.1,3.6,6.7,7c0,0-13.4,6.4-15.2,11.3C349.2,666.8,349.8,649.8,357.7,648.5z"/>
		<path class="st15" d="M761.6,672.6c-0.6-4.4-2.6-7.6-6.4-8.8c-3.5-1.1-8.6,2.5-11.2-1c2.6,3.2,2.3,6.9,5.9,9.1
			c2.9,1.8,8.4,1.2,10.8,1.2"/>
		<path d="M670.1,649.7l-13.9,0.1l-0.1-10.1C656.1,639.7,660.3,640.6,670.1,649.7z"/>
		<g class="st2">
			<path class="st16" d="M711.9,673.6c13.7,0,24.6,11.1,24.6,24.7c0,0.6-0.1,1.3-0.1,1.9c-1,12.8-11.6,22.8-24.6,22.8
				c-13,0-23.6-10-24.6-22.8c-0.1-0.6-0.1-1.3-0.1-1.9C687.2,684.6,698.3,673.6,711.9,673.6z"/>
			<path class="st17" d="M711.9,677.5c11.5,0,20.8,9.3,20.8,20.8c0,0.6-0.1,1.1-0.1,1.6c-0.8,10.7-9.8,19.2-20.7,19.2
				s-19.9-8.5-20.7-19.2c0-0.6-0.1-1.1-0.1-1.6C691.1,686.8,700.4,677.5,711.9,677.5z"/>
			<path class="st18" d="M711.9,677.5c-11.5,0-20.8,9.4-20.8,20.8c0,11.5,9.4,20.8,20.8,20.8c11.5,0,20.8-9.4,20.8-20.8
				C732.7,686.8,723.3,677.5,711.9,677.5L711.9,677.5z M712.1,694.7c-1.9,0-3.4,1.5-3.4,3.4s1.5,3.4,3.4,3.4c1.9,0,3.4-1.5,3.4-3.4
				C715.5,696.3,714,694.7,712.1,694.7L712.1,694.7z M710.2,681.8l3.2,8c0.7,0.2,1.5,0.3,2.1,0.6l6.8-5.1c-2.8-2.3-6.5-3.6-10.3-3.6
				C711.3,681.7,710.7,681.8,710.2,681.8L710.2,681.8z M723.3,686.3l-6,5.4c0.5,0.4,1,0.9,1.3,1.4l6-5.3
				C724.1,687.2,723.7,686.7,723.3,686.3L723.3,686.3z M725.6,689l-5.6,6.6c0.2,0.6,0.3,1.2,0.4,1.9l7.9,2.5
				c0.1-0.6,0.1-1.1,0.1-1.7C728.4,694.9,727.4,691.7,725.6,689L725.6,689z M728.2,701.4l-7.8-1.9c-0.1,0.7-0.2,1.4-0.5,2l7.7,2.3
				C727.8,703,728,702.2,728.2,701.4L728.2,701.4z M727,705l-8.4-1.4c-0.4,0.6-0.9,1.1-1.5,1.5l1.8,8.2
				C722.5,711.6,725.4,708.6,727,705L727,705z M717.7,713.8l-2.2-7.8c-0.6,0.3-1.3,0.5-1.9,0.6l1.9,7.8
				C716.1,714.3,717,714.1,717.7,713.8L717.7,713.8z M714.1,714.7l-2.9-7.8c-1.1-0.1-2-0.3-2.9-0.8l-6.3,5.4
				c2.7,2.1,6.2,3.3,9.9,3.3C712.7,714.9,713.4,714.9,714.1,714.7L714.1,714.7z M701.1,710.8l5.4-5.9c-0.4-0.3-0.8-0.7-1.1-1.1
				l-5.9,5.3C700,709.9,700.6,710.3,701.1,710.8L701.1,710.8z M698.6,708.1l5.3-6.8c-0.2-0.6-0.4-1.1-0.5-1.8l-7.9-3.2
				c-0.1,0.6-0.1,1.3-0.1,1.9C695.4,702,696.6,705.3,698.6,708.1L698.6,708.1z M695.6,695.1l7.8,1.9c0.1-0.6,0.2-1.1,0.4-1.5
				l-7.7-2.2C695.9,693.9,695.8,694.6,695.6,695.1L695.6,695.1z M696.7,691.9l8.2,1.5c0.6-0.8,1.3-1.5,2.1-2l-1.1-8.4
				C701.7,684.6,698.4,687.8,696.7,691.9L696.7,691.9z M706.9,682.5l1.9,7.8c0.7-0.2,1.5-0.5,2.2-0.6l-2.2-7.8
				C708.1,682.1,707.5,682.3,706.9,682.5L706.9,682.5z"/>
		</g>
		<g>
			<path class="st19" d="M401.9,672.5c12,0,21.6,9.7,21.6,21.7c0,0.6-0.1,1.1-0.1,1.7c-0.8,11.2-10.1,20-21.5,20
				c-11.4,0-20.7-8.8-21.5-20c-0.1-0.6-0.1-1.1-0.1-1.7C380.3,682.2,390,672.5,401.9,672.5z"/>
			<path class="st20" d="M401.9,676c10,0,18.2,8.1,18.2,18.3c0,0.5,0,0.9-0.1,1.4c-0.7,9.4-8.6,16.8-18.1,16.8
				c-9.6,0-17.4-7.4-18.1-16.8c0-0.5-0.1-0.9-0.1-1.4C383.7,684.1,391.9,676,401.9,676z"/>
			<path class="st21" d="M401.9,676c-10,0-18.2,8.2-18.2,18.3c0,10,8.2,18.3,18.2,18.3c10,0,18.2-8.2,18.2-18.3
				C420.2,684.1,412,676,401.9,676L401.9,676z M402.1,691c-1.6,0-3,1.3-3,3c0,1.6,1.3,3,3,3c1.6,0,3-1.3,3-3
				C405.1,692.4,403.7,691,402.1,691L402.1,691z M400.4,679.7l2.8,7c0.6,0.1,1.3,0.3,1.8,0.6l5.9-4.5c-2.5-2-5.7-3.2-9.1-3.2
				C401.4,679.7,400.9,679.7,400.4,679.7L400.4,679.7z M411.9,683.6l-5.2,4.7c0.4,0.4,0.8,0.8,1.1,1.2l5.2-4.6
				C412.7,684.5,412.3,684,411.9,683.6L411.9,683.6z M413.9,686l-4.9,5.8c0.1,0.5,0.3,1.1,0.4,1.6l6.9,2.2c0.1-0.5,0.1-1,0.1-1.5
				C416.4,691.2,415.5,688.4,413.9,686L413.9,686z M416.2,696.8l-6.8-1.7c-0.1,0.6-0.2,1.2-0.4,1.8l6.7,2.1
				C415.8,698.3,416.1,697.6,416.2,696.8L416.2,696.8z M415.1,700l-7.4-1.2c-0.4,0.5-0.8,0.9-1.3,1.3l1.6,7.1
				C411.2,705.8,413.7,703.2,415.1,700L415.1,700z M407,707.7l-1.9-6.8c-0.6,0.3-1.1,0.4-1.7,0.6l1.6,6.8
				C405.7,708.2,406.4,708,407,707.7L407,707.7z M403.9,708.5l-2.5-6.9c-0.9-0.1-1.8-0.3-2.5-0.7l-5.5,4.7c2.4,1.8,5.4,2.9,8.7,2.9
				C402.6,708.7,403.2,708.7,403.9,708.5L403.9,708.5z M392.5,705.1l4.7-5.2c-0.4-0.3-0.7-0.6-1-0.9l-5.2,4.7
				C391.5,704.3,392,704.7,392.5,705.1L392.5,705.1z M390.3,702.7l4.7-5.9c-0.2-0.5-0.4-1-0.4-1.6l-6.9-2.8
				c-0.1,0.6-0.1,1.1-0.1,1.7C387.5,697.4,388.5,700.3,390.3,702.7L390.3,702.7z M387.7,691.4l6.8,1.6c0.1-0.5,0.2-0.9,0.4-1.3
				l-6.7-1.9C388,690.3,387.8,690.9,387.7,691.4L387.7,691.4z M388.6,688.6l7.2,1.3c0.5-0.7,1.1-1.3,1.8-1.8l-1-7.4
				C393,682.1,390.1,685,388.6,688.6L388.6,688.6z M397.6,680.4l1.6,6.8c0.6-0.2,1.3-0.4,1.9-0.5l-1.9-6.8
				C398.7,680,398.1,680.2,397.6,680.4L397.6,680.4z"/>
		</g>
		<g>
			<path class="st19" d="M709.7,672.5c12,0,21.6,9.7,21.6,21.7c0,0.6-0.1,1.1-0.1,1.7c-0.8,11.2-10.1,20-21.5,20
				c-11.4,0-20.7-8.8-21.5-20c-0.1-0.6-0.1-1.1-0.1-1.7C688.1,682.2,697.8,672.5,709.7,672.5z"/>
			<path class="st20" d="M709.7,676c10,0,18.2,8.1,18.2,18.3c0,0.5,0,0.9-0.1,1.4c-0.7,9.4-8.6,16.8-18.1,16.8
				c-9.6,0-17.4-7.4-18.1-16.8c0-0.5-0.1-0.9-0.1-1.4C691.5,684.1,699.7,676,709.7,676z"/>
			<path class="st21" d="M709.7,676c-10,0-18.2,8.2-18.2,18.3c0,10,8.2,18.3,18.2,18.3c10,0,18.2-8.2,18.2-18.3
				C728,684.1,719.8,676,709.7,676L709.7,676z M709.9,691c-1.6,0-3,1.3-3,3c0,1.6,1.3,3,3,3s3-1.3,3-3
				C712.9,692.4,711.5,691,709.9,691L709.9,691z M708.2,679.7l2.8,7c0.6,0.1,1.3,0.3,1.8,0.6l5.9-4.5c-2.5-2-5.7-3.2-9.1-3.2
				C709.2,679.7,708.7,679.7,708.2,679.7L708.2,679.7z M719.7,683.6l-5.2,4.7c0.4,0.4,0.8,0.8,1.1,1.2l5.2-4.6
				C720.5,684.5,720.1,684,719.7,683.6L719.7,683.6z M721.7,686l-4.9,5.8c0.1,0.5,0.3,1.1,0.4,1.6l6.9,2.2c0.1-0.5,0.1-1,0.1-1.5
				C724.2,691.2,723.3,688.4,721.7,686L721.7,686z M724,696.8l-6.8-1.7c-0.1,0.6-0.2,1.2-0.4,1.8l6.7,2.1
				C723.6,698.3,723.9,697.6,724,696.8L724,696.8z M722.9,700l-7.4-1.2c-0.4,0.5-0.8,0.9-1.3,1.3l1.6,7.1
				C719,705.8,721.5,703.2,722.9,700L722.9,700z M714.8,707.7l-1.9-6.8c-0.6,0.3-1.1,0.4-1.7,0.6l1.6,6.8
				C713.5,708.2,714.2,708,714.8,707.7L714.8,707.7z M711.7,708.5l-2.5-6.9c-0.9-0.1-1.8-0.3-2.5-0.7l-5.5,4.7
				c2.4,1.8,5.4,2.9,8.7,2.9C710.4,708.7,711,708.7,711.7,708.5L711.7,708.5z M700.3,705.1l4.7-5.2c-0.4-0.3-0.7-0.6-1-0.9l-5.2,4.7
				C699.3,704.3,699.8,704.7,700.3,705.1L700.3,705.1z M698.1,702.7l4.7-5.9c-0.2-0.5-0.4-1-0.4-1.6l-6.9-2.8
				c-0.1,0.6-0.1,1.1-0.1,1.7C695.3,697.4,696.3,700.3,698.1,702.7L698.1,702.7z M695.5,691.4l6.8,1.6c0.1-0.5,0.2-0.9,0.4-1.3
				l-6.7-1.9C695.8,690.3,695.6,690.9,695.5,691.4L695.5,691.4z M696.4,688.6l7.2,1.3c0.5-0.7,1.1-1.3,1.8-1.8l-1-7.4
				C700.8,682.1,697.9,685,696.4,688.6L696.4,688.6z M705.4,680.4l1.6,6.8c0.6-0.2,1.3-0.4,1.9-0.5l-1.9-6.8
				C706.5,680,705.9,680.2,705.4,680.4L705.4,680.4z"/>
		</g>
	</g>
</g>
</svg>
