<?xml version="1.0" encoding="utf-8"?>
<!-- Generator: Adobe Illustrator 19.0.0, SVG Export Plug-In . SVG Version: 6.00 Build 0)  -->
<svg version="1.1" xmlns="http://www.w3.org/2000/svg" xmlns:xlink="http://www.w3.org/1999/xlink" x="0px" y="0px"
	 viewBox="0 0 1368 1368" style="enable-background:new 0 0 1368 1368;" xml:space="preserve">
<style type="text/css">
	.st0{fill:#911A1C;}
	.st1{fill:#E8C489;}
	.st2{fill:#2E4561;}
	.st3{fill:#66C5CD;}
	.st4{fill:#FEEBC9;}
	.st5{fill:#E2BD81;}
	.st6{fill:#D62027;}
	.st7{fill:#E0D2B4;}
	.st8{fill:#357790;}
	.st9{opacity:0.1;fill:url(#XMLID_274_);}
	.st10{opacity:0.15;}
	.st11{fill:#010101;}
	.st12{fill:none;stroke:#2E4561;stroke-width:3;stroke-miterlimit:10;}
	.st13{fill:#640D0D;}
	.st14{fill:none;stroke:#414042;stroke-width:12;stroke-miterlimit:10;}
	.st15{fill:#FFFFFF;stroke:#58595B;stroke-width:8;stroke-miterlimit:10;}
	.st16{opacity:0.25;}
	.st17{fill:#FFFFFF;}
	.st18{fill:#F7EF74;}
	.st19{display:none;}
	.st20{display:inline;fill:#FFFFFF;}
</style>
<g id="Layer_8">
	<rect id="XMLID_1_" x="1" class="st0" width="1368" height="1368"/>
</g>
<g id="Layer_9">
	<g id="XMLID_127_">
		<polygon id="XMLID_219_" class="st1" points="1080.2,10 1038.6,10 1368,630.9 1368,552.5 		"/>
		<polygon id="XMLID_218_" class="st1" points="840.4,10.1 798.8,10.1 1368,1083 1368,1004.6 		"/>
		<g id="XMLID_216_">
			
				<rect id="XMLID_217_" x="1003.7" y="50.7" transform="matrix(0.4687 0.8834 -0.8834 0.4687 657.6648 -816.0632)" class="st1" width="7.2" height="176"/>
		</g>
		<g id="XMLID_214_">
			
				<rect id="XMLID_215_" x="1117.2" y="264.7" transform="matrix(0.4687 0.8833 -0.8833 0.4687 906.9797 -802.6526)" class="st1" width="7.2" height="176"/>
		</g>
		<g id="XMLID_212_">
			
				<rect id="XMLID_213_" x="1248.8" y="512.1" transform="matrix(0.4688 0.8833 -0.8833 0.4688 1195.3568 -787.5258)" class="st1" width="7.2" height="176"/>
		</g>
		<g id="XMLID_210_">
			<path id="XMLID_211_" class="st1" d="M1302.1,887.6l-3.4-6.3l4.5-2.4c19.7-10.5,44.6-23.7,64.7-34.3v9
				c-20.1,10.5-41.6,21.1-61.3,31.6L1302.1,887.6z"/>
		</g>
		<path id="XMLID_209_" class="st2" d="M1068.4,10h-18l5.6,10.5c0.8,1.6,2.8,2.2,4.3,1.4l8.4-4.5c1.6-0.8,2.1-2.8,1.3-4.4L1068.4,10
			z"/>
		<path id="XMLID_208_" class="st2" d="M1078.2,55.7c-1.6,0.8-3.5,0.2-4.3-1.4l-5.6-10.6c-0.8-1.6-0.3-3.5,1.3-4.4l8.4-4.5
			c1.6-0.8,3.5-0.2,4.3,1.4l5.6,10.6c0.8,1.6,0.3,3.5-1.3,4.4L1078.2,55.7z"/>
		<path id="XMLID_207_" class="st2" d="M1096.2,89.6c-1.6,0.8-3.5,0.2-4.3-1.4l-5.6-10.6c-0.8-1.6-0.3-3.6,1.3-4.4l8.4-4.5
			c1.6-0.8,3.5-0.2,4.3,1.4l5.6,10.6c0.8,1.6,0.3,3.6-1.3,4.4L1096.2,89.6z"/>
		<path id="XMLID_206_" class="st2" d="M1114.2,123.4c-1.6,0.8-3.5,0.2-4.3-1.4l-5.6-10.6c-0.8-1.6-0.3-3.6,1.3-4.4l8.4-4.5
			c1.6-0.8,3.5-0.2,4.3,1.4l5.6,10.6c0.8,1.6,0.3,3.6-1.3,4.4L1114.2,123.4z"/>
		<path id="XMLID_205_" class="st2" d="M1132.1,157.3c-1.6,0.8-3.5,0.2-4.3-1.4l-5.6-10.6c-0.8-1.6-0.3-3.5,1.3-4.4l8.4-4.5
			c1.6-0.8,3.5-0.2,4.3,1.4l5.6,10.6c0.8,1.6,0.3,3.6-1.3,4.4L1132.1,157.3z"/>
		<path id="XMLID_204_" class="st2" d="M1150.1,191.1c-1.6,0.8-3.5,0.2-4.3-1.4l-5.6-10.6c-0.8-1.6-0.3-3.5,1.3-4.4l8.4-4.5
			c1.6-0.8,3.5-0.2,4.3,1.4l5.6,10.6c0.9,1.6,0.3,3.6-1.3,4.4L1150.1,191.1z"/>
		<path id="XMLID_203_" class="st2" d="M1168,225c-1.6,0.8-3.5,0.2-4.3-1.4l-5.6-10.6c-0.8-1.6-0.3-3.5,1.3-4.4l8.4-4.5
			c1.6-0.8,3.5-0.2,4.3,1.4l5.6,10.6c0.9,1.6,0.3,3.6-1.3,4.4L1168,225z"/>
		<path id="XMLID_202_" class="st2" d="M1186,258.8c-1.6,0.8-3.5,0.2-4.3-1.4l-5.6-10.6c-0.8-1.6-0.3-3.5,1.3-4.4l8.4-4.5
			c1.6-0.8,3.5-0.2,4.3,1.4l5.6,10.6c0.8,1.6,0.3,3.5-1.3,4.4L1186,258.8z"/>
		<path id="XMLID_201_" class="st2" d="M1204,292.7c-1.6,0.8-3.5,0.2-4.3-1.4l-5.6-10.6c-0.8-1.6-0.3-3.6,1.3-4.4l8.4-4.5
			c1.6-0.8,3.5-0.2,4.3,1.4l5.6,10.6c0.8,1.6,0.3,3.6-1.3,4.4L1204,292.7z"/>
		<path id="XMLID_200_" class="st2" d="M1221.9,326.5c-1.6,0.8-3.5,0.2-4.3-1.4l-5.6-10.6c-0.9-1.6-0.3-3.6,1.3-4.4l8.4-4.5
			c1.6-0.8,3.5-0.2,4.3,1.4l5.6,10.6c0.8,1.6,0.3,3.6-1.3,4.4L1221.9,326.5z"/>
		<path id="XMLID_199_" class="st2" d="M1239.9,360.4c-1.6,0.8-3.5,0.2-4.3-1.4l-5.6-10.6c-0.8-1.6-0.3-3.5,1.3-4.4l8.4-4.5
			c1.6-0.8,3.5-0.2,4.3,1.4l5.6,10.6c0.8,1.6,0.3,3.5-1.3,4.4L1239.9,360.4z"/>
		<path id="XMLID_198_" class="st2" d="M1257.8,394.2c-1.6,0.8-3.5,0.2-4.3-1.4l-5.6-10.6c-0.8-1.6-0.3-3.5,1.3-4.4l8.4-4.5
			c1.6-0.8,3.5-0.2,4.3,1.4l5.6,10.6c0.8,1.6,0.3,3.6-1.3,4.4L1257.8,394.2z"/>
		<path id="XMLID_197_" class="st2" d="M1275.8,428.1c-1.6,0.8-3.5,0.2-4.3-1.4l-5.6-10.6c-0.8-1.6-0.3-3.6,1.3-4.4l8.4-4.5
			c1.6-0.8,3.5-0.2,4.3,1.4l5.6,10.6c0.8,1.6,0.3,3.5-1.3,4.4L1275.8,428.1z"/>
		<path id="XMLID_196_" class="st2" d="M1293.8,461.9c-1.6,0.8-3.5,0.2-4.3-1.4l-5.6-10.6c-0.8-1.6-0.3-3.6,1.3-4.4l8.4-4.5
			c1.6-0.8,3.5-0.2,4.3,1.4l5.6,10.6c0.8,1.6,0.3,3.5-1.3,4.4L1293.8,461.9z"/>
		<path id="XMLID_195_" class="st2" d="M1314.2,498.2c-1.6,0.8-3.5,0.2-4.3-1.4l-5.6-10.6c-0.8-1.6-0.3-3.6,1.3-4.4l8.4-4.5
			c1.6-0.8,3.5-0.2,4.3,1.4l5.6,10.6c0.8,1.6,0.3,3.6-1.3,4.4L1314.2,498.2z"/>
		<path id="XMLID_194_" class="st2" d="M1332.2,532c-1.6,0.8-3.5,0.2-4.3-1.4l-5.6-10.6c-0.8-1.6-0.3-3.6,1.3-4.4l8.4-4.5
			c1.6-0.8,3.5-0.2,4.3,1.4l5.6,10.6c0.8,1.6,0.3,3.6-1.3,4.4L1332.2,532z"/>
		<path id="XMLID_193_" class="st2" d="M1350.1,565.9c-1.6,0.8-3.5,0.2-4.3-1.4l-5.6-10.6c-0.8-1.6-0.3-3.5,1.3-4.4l8.4-4.5
			c1.6-0.8,3.5-0.2,4.3,1.4l5.6,10.6c0.8,1.6,0.3,3.6-1.3,4.4L1350.1,565.9z"/>
		<path id="XMLID_192_" class="st2" d="M1368,578.8c0,0-0.1,0-0.2,0.1l-8.4,4.5c-1.6,0.8-2.1,2.8-1.3,4.4l5.6,10.6
			c0.8,1.6,2.7,2.2,4.3,1.4V578.8z"/>
		<path id="XMLID_191_" class="st2" d="M1123.1,593.6c-1.6,0.8-3.5,0.2-4.3-1.4l-5.6-10.6c-0.8-1.6-0.3-3.6,1.3-4.4l8.4-4.5
			c1.6-0.8,3.5-0.2,4.3,1.4l5.6,10.6c0.8,1.6,0.3,3.6-1.3,4.4L1123.1,593.6z"/>
		<path id="XMLID_190_" class="st2" d="M1141.1,627.4c-1.6,0.8-3.5,0.2-4.3-1.4l-5.6-10.6c-0.8-1.6-0.3-3.6,1.3-4.4l8.4-4.5
			c1.6-0.8,3.5-0.2,4.3,1.4l5.6,10.6c0.8,1.6,0.3,3.6-1.3,4.4L1141.1,627.4z"/>
		<path id="XMLID_189_" class="st2" d="M1159.1,661.3c-1.6,0.8-3.5,0.2-4.3-1.4l-5.6-10.6c-0.8-1.6-0.3-3.5,1.3-4.4l8.4-4.5
			c1.6-0.8,3.5-0.2,4.3,1.4l5.6,10.6c0.8,1.6,0.3,3.6-1.3,4.4L1159.1,661.3z"/>
		<path id="XMLID_188_" class="st2" d="M1177,695.1c-1.6,0.8-3.5,0.2-4.3-1.4l-5.6-10.6c-0.8-1.6-0.3-3.5,1.3-4.4l8.4-4.5
			c1.6-0.8,3.5-0.2,4.3,1.4l5.6,10.6c0.9,1.6,0.3,3.6-1.3,4.4L1177,695.1z"/>
		<path id="XMLID_187_" class="st2" d="M1195,729c-1.6,0.8-3.5,0.2-4.3-1.4L1185,717c-0.8-1.6-0.3-3.5,1.3-4.4l8.4-4.5
			c1.6-0.8,3.5-0.2,4.3,1.4l5.6,10.6c0.9,1.6,0.3,3.6-1.3,4.4L1195,729z"/>
		<path id="XMLID_186_" class="st2" d="M1212.9,762.8c-1.6,0.8-3.5,0.2-4.3-1.4l-5.6-10.6c-0.8-1.6-0.3-3.5,1.3-4.4l8.4-4.5
			c1.6-0.8,3.5-0.2,4.3,1.4l5.6,10.6c0.8,1.6,0.3,3.5-1.3,4.4L1212.9,762.8z"/>
		<path id="XMLID_185_" class="st2" d="M1230.9,796.7c-1.6,0.8-3.5,0.2-4.3-1.4l-5.6-10.6c-0.8-1.6-0.3-3.6,1.3-4.4l8.4-4.5
			c1.6-0.8,3.5-0.2,4.3,1.4l5.6,10.6c0.8,1.6,0.3,3.6-1.3,4.4L1230.9,796.7z"/>
		<path id="XMLID_184_" class="st2" d="M1248.9,830.5c-1.6,0.8-3.5,0.2-4.3-1.4l-5.6-10.6c-0.9-1.6-0.3-3.6,1.3-4.4l8.4-4.5
			c1.6-0.8,3.5-0.2,4.3,1.4l5.6,10.6c0.8,1.6,0.3,3.6-1.3,4.4L1248.9,830.5z"/>
		<path id="XMLID_156_" class="st2" d="M1266.8,864.4c-1.6,0.8-3.5,0.2-4.3-1.4l-5.6-10.6c-0.8-1.6-0.3-3.5,1.3-4.4l8.4-4.5
			c1.6-0.8,3.5-0.2,4.3,1.4l5.6,10.6c0.8,1.6,0.3,3.5-1.3,4.4L1266.8,864.4z"/>
		<path id="XMLID_155_" class="st2" d="M1284.8,898.2c-1.6,0.8-3.5,0.2-4.3-1.4l-5.6-10.6c-0.8-1.6-0.3-3.5,1.3-4.4l8.4-4.5
			c1.6-0.8,3.5-0.2,4.3,1.4l5.6,10.6c0.8,1.6,0.3,3.6-1.3,4.4L1284.8,898.2z"/>
		<path id="XMLID_154_" class="st2" d="M1302.7,932.1c-1.6,0.8-3.5,0.2-4.3-1.4l-5.6-10.6c-0.8-1.6-0.3-3.6,1.3-4.4l8.4-4.5
			c1.6-0.8,3.5-0.2,4.3,1.4l5.6,10.6c0.8,1.6,0.3,3.5-1.3,4.4L1302.7,932.1z"/>
		<path id="XMLID_153_" class="st2" d="M1320.7,965.9c-1.6,0.8-3.5,0.2-4.3-1.4l-5.6-10.6c-0.8-1.6-0.3-3.6,1.3-4.4l8.4-4.5
			c1.6-0.8,3.5-0.2,4.3,1.4l5.6,10.6c0.8,1.6,0.3,3.5-1.3,4.4L1320.7,965.9z"/>
		<path id="XMLID_152_" class="st2" d="M1339.9,999.5c-1.6,0.8-3.5,0.2-4.3-1.4l-5.6-10.6c-0.8-1.6-0.3-3.5,1.3-4.4l8.4-4.5
			c1.6-0.8,3.5-0.2,4.3,1.4l5.6,10.6c0.8,1.6,0.3,3.6-1.3,4.4L1339.9,999.5z"/>
		<path id="XMLID_151_" class="st2" d="M1357.9,1033.3c-1.6,0.8-3.5,0.2-4.3-1.4l-5.6-10.6c-0.8-1.6-0.3-3.6,1.3-4.4l8.4-4.5
			c1.6-0.8,3.5-0.2,4.3,1.4l5.6,10.6c0.8,1.6,0.3,3.5-1.3,4.4L1357.9,1033.3z"/>
		<path id="XMLID_150_" class="st2" d="M1368,1050.4l-0.9,0.5c-1.6,0.8-2.1,2.8-1.3,4.4l2.1,4V1050.4z"/>
		<path id="XMLID_149_" class="st2" d="M828.6,10.1h-18l4.3,8.1c0.8,1.6,2.8,2.2,4.3,1.4l8.4-4.5c1.6-0.8,2.1-2.8,1.3-4.4
			L828.6,10.1z"/>
		<path id="XMLID_148_" class="st2" d="M837.2,53.5c-1.6,0.8-3.5,0.2-4.3-1.4l-5.6-10.6c-0.8-1.6-0.3-3.6,1.3-4.4l8.4-4.5
			c1.6-0.8,3.5-0.2,4.3,1.4l5.6,10.6c0.8,1.6,0.3,3.6-1.3,4.4L837.2,53.5z"/>
		<path id="XMLID_147_" class="st2" d="M855.2,87.3c-1.6,0.8-3.5,0.2-4.4-1.4l-5.6-10.6c-0.8-1.6-0.3-3.5,1.3-4.4l8.4-4.5
			c1.6-0.8,3.5-0.2,4.3,1.4l5.6,10.6c0.8,1.6,0.3,3.6-1.3,4.4L855.2,87.3z"/>
		<path id="XMLID_146_" class="st2" d="M873.1,121.2c-1.6,0.8-3.5,0.2-4.3-1.4l-5.6-10.6c-0.8-1.6-0.3-3.6,1.3-4.4l8.4-4.5
			c1.6-0.8,3.5-0.2,4.3,1.4l5.6,10.6c0.8,1.6,0.3,3.6-1.3,4.4L873.1,121.2z"/>
		<path id="XMLID_145_" class="st2" d="M891.1,155c-1.6,0.8-3.5,0.2-4.3-1.4l-5.6-10.6c-0.8-1.6-0.3-3.5,1.3-4.4l8.4-4.5
			c1.6-0.8,3.5-0.2,4.3,1.4l5.6,10.6c0.8,1.6,0.3,3.5-1.3,4.4L891.1,155z"/>
		<path id="XMLID_141_" class="st2" d="M909,188.9c-1.6,0.8-3.5,0.2-4.3-1.4l-5.6-10.6c-0.8-1.6-0.3-3.6,1.3-4.4l8.4-4.5
			c1.6-0.8,3.5-0.2,4.4,1.4l5.6,10.6c0.8,1.6,0.3,3.6-1.3,4.4L909,188.9z"/>
		<path id="XMLID_140_" class="st2" d="M927,222.7c-1.6,0.8-3.5,0.2-4.3-1.4l-5.6-10.6c-0.8-1.6-0.3-3.6,1.3-4.4l8.4-4.5
			c1.6-0.8,3.5-0.2,4.3,1.4l5.6,10.6c0.8,1.6,0.3,3.6-1.3,4.4L927,222.7z"/>
		<path id="XMLID_139_" class="st2" d="M945,256.6c-1.6,0.8-3.5,0.2-4.3-1.4l-5.6-10.6c-0.8-1.6-0.3-3.6,1.3-4.4l8.4-4.5
			c1.6-0.8,3.5-0.2,4.4,1.4l5.6,10.6c0.8,1.6,0.3,3.6-1.3,4.4L945,256.6z"/>
		<path id="XMLID_138_" class="st2" d="M962.9,290.4c-1.6,0.8-3.5,0.2-4.4-1.4l-5.6-10.6c-0.8-1.6-0.3-3.5,1.3-4.4l8.4-4.5
			c1.6-0.8,3.5-0.2,4.3,1.4l5.6,10.6c0.8,1.6,0.3,3.6-1.3,4.4L962.9,290.4z"/>
		<path id="XMLID_136_" class="st2" d="M980.9,324.3c-1.6,0.8-3.5,0.2-4.3-1.4l-5.6-10.6c-0.8-1.6-0.3-3.5,1.3-4.4l8.4-4.5
			c1.6-0.8,3.5-0.2,4.3,1.4l5.6,10.6c0.9,1.6,0.3,3.6-1.3,4.4L980.9,324.3z"/>
		<path id="XMLID_134_" class="st2" d="M998.8,358.1c-1.6,0.8-3.5,0.2-4.3-1.4l-5.6-10.6c-0.8-1.6-0.3-3.5,1.3-4.4l8.4-4.5
			c1.6-0.8,3.5-0.2,4.3,1.4l5.6,10.6c0.8,1.6,0.3,3.5-1.3,4.4L998.8,358.1z"/>
		<path id="XMLID_133_" class="st2" d="M1016.8,392c-1.6,0.8-3.5,0.2-4.3-1.4l-5.6-10.6c-0.8-1.6-0.3-3.6,1.3-4.4l8.4-4.5
			c1.6-0.8,3.5-0.2,4.4,1.4l5.6,10.6c0.8,1.6,0.3,3.6-1.3,4.4L1016.8,392z"/>
		<path id="XMLID_132_" class="st2" d="M1034.7,425.8c-1.6,0.8-3.5,0.2-4.3-1.4l-5.6-10.6c-0.8-1.6-0.3-3.6,1.3-4.4l8.4-4.5
			c1.6-0.8,3.5-0.2,4.3,1.4l5.6,10.6c0.8,1.6,0.3,3.6-1.3,4.4L1034.7,425.8z"/>
		<path id="XMLID_131_" class="st2" d="M1052.7,459.7c-1.6,0.8-3.5,0.2-4.3-1.4l-5.6-10.6c-0.8-1.6-0.3-3.6,1.3-4.4l8.4-4.5
			c1.6-0.8,3.5-0.2,4.4,1.4l5.6,10.6c0.8,1.6,0.3,3.5-1.3,4.4L1052.7,459.7z"/>
		<path id="XMLID_130_" class="st2" d="M1070.7,493.5c-1.6,0.8-3.5,0.2-4.3-1.4l-5.6-10.6c-0.8-1.6-0.3-3.5,1.3-4.4l8.4-4.5
			c1.6-0.8,3.5-0.2,4.3,1.4l5.6,10.6c0.8,1.6,0.3,3.6-1.3,4.4L1070.7,493.5z"/>
		<path id="XMLID_129_" class="st2" d="M1088.6,527.4c-1.6,0.8-3.5,0.2-4.3-1.4l-5.6-10.6c-0.8-1.6-0.3-3.6,1.3-4.4l8.4-4.5
			c1.6-0.8,3.5-0.2,4.3,1.4l5.6,10.6c0.8,1.6,0.3,3.6-1.3,4.4L1088.6,527.4z"/>
		<path id="XMLID_128_" class="st2" d="M1106.6,561.2c-1.6,0.8-3.5,0.2-4.4-1.4l-5.6-10.6c-0.8-1.6-0.3-3.6,1.3-4.4l8.4-4.5
			c1.6-0.8,3.5-0.2,4.4,1.4l5.6,10.6c0.8,1.6,0.3,3.6-1.3,4.4L1106.6,561.2z"/>
	</g>
</g>
<g id="Layer_10">
	<g id="XMLID_268_">
		<polygon id="XMLID_266_" class="st3" points="1146.5,1368 1193.7,1368 1368,917.8 1368,795.8 		"/>
		<polygon id="XMLID_265_" class="st3" points="874,1368 921.3,1368 1368,213.9 1368,91.9 		"/>
		<g id="XMLID_321_">
			<polygon id="XMLID_264_" class="st3" points="1368,296.3 1339.4,284.9 1342.5,276.9 1368,286.4 			"/>
		</g>
		<g id="XMLID_319_">
			<path id="XMLID_263_" class="st3" d="M1368,607.6c-15.4-5.9-35.7-14-50.6-19.9c-26.8-10.6-54.6-21.6-82.8-31.8l2.9-8.1
				c28.4,10.2,56.2,21.3,83,31.9c14.9,5.9,32,12.5,47.4,18.4V607.6z"/>
		</g>
		<g id="XMLID_317_">
			<polygon id="XMLID_262_" class="st3" points="1193.1,1252.4 991.9,1174.4 995,1166.3 1197.9,1244.4 			"/>
		</g>
		<path id="XMLID_261_" class="st2" d="M1368,861l-5.5-2.1c-2-0.8-4.2,0.3-5,2.3l-5.2,13.4c-0.8,2,0.2,4.3,2.1,5l10.7,4.1
			c1,0.4,2,0.3,2.8-0.1V861z"/>
		<path id="XMLID_260_" class="st2" d="M1337.9,922.4c-2-0.8-2.9-3-2.1-5l5.2-13.4c0.8-2,3-3,5-2.3l10.7,4.1c2,0.8,2.9,3,2.1,5
			l-5.2,13.4c-0.8,2-3,3-5,2.3L1337.9,922.4z"/>
		<path id="XMLID_259_" class="st2" d="M1321.3,965.3c-2-0.8-2.9-3-2.1-5l5.2-13.4c0.8-2,3-3,5-2.3l10.7,4.1c2,0.8,2.9,3,2.1,5
			l-5.2,13.4c-0.8,2-3,3-5,2.3L1321.3,965.3z"/>
		<path id="XMLID_258_" class="st2" d="M1304.7,1008.1c-2-0.8-2.9-3-2.1-5l5.2-13.4c0.8-2,3-3,5-2.3l10.7,4.1c2,0.8,2.9,3,2.2,5
			l-5.2,13.4c-0.8,2-3,3.1-5,2.3L1304.7,1008.1z"/>
		<path id="XMLID_257_" class="st2" d="M1288.1,1051c-2-0.8-2.9-3-2.1-5l5.2-13.4c0.8-2,3-3,5-2.3l10.7,4.1c2,0.8,2.9,3,2.1,5
			l-5.2,13.4c-0.8,2-3,3-5,2.3L1288.1,1051z"/>
		<path id="XMLID_256_" class="st2" d="M1271.5,1093.8c-2-0.8-2.9-3-2.1-5l5.2-13.4c0.8-2,3-3,5-2.3l10.7,4.1c2,0.8,2.9,3,2.2,5
			l-5.2,13.4c-0.8,2-3,3-5,2.3L1271.5,1093.8z"/>
		<path id="XMLID_255_" class="st2" d="M1254.9,1136.7c-2-0.8-2.9-3-2.1-5l5.2-13.4c0.8-2,3-3,5-2.3l10.7,4.1c2,0.8,2.9,3,2.1,5
			l-5.2,13.4c-0.8,2-3,3-5,2.3L1254.9,1136.7z"/>
		<path id="XMLID_254_" class="st2" d="M1238.3,1179.6c-2-0.8-2.9-3-2.1-5l5.2-13.4c0.8-2,3-3,5-2.3l10.7,4.1c2,0.8,2.9,3,2.1,5
			l-5.2,13.4c-0.8,2-3,3-5,2.3L1238.3,1179.6z"/>
		<path id="XMLID_253_" class="st2" d="M1221.8,1222.4c-2-0.8-2.9-3-2.1-5l5.2-13.4c0.8-2,3-3,5-2.3l10.7,4.1c2,0.8,2.9,3,2.1,5
			l-5.2,13.4c-0.8,2-3,3-5,2.3L1221.8,1222.4z"/>
		<path id="XMLID_252_" class="st2" d="M1205.2,1265.3c-2-0.8-2.9-3-2.1-5l5.2-13.4c0.8-2,3-3,5-2.3l10.7,4.1c2,0.8,2.9,3,2.2,5
			l-5.2,13.4c-0.8,2-3,3-5,2.3L1205.2,1265.3z"/>
		<path id="XMLID_251_" class="st2" d="M1188.6,1308.1c-2-0.8-2.9-3-2.1-5l5.2-13.4c0.8-2,3-3,5-2.3l10.7,4.1c2,0.8,2.9,3,2.1,5
			l-5.2,13.4c-0.8,2-3,3-5,2.3L1188.6,1308.1z"/>
		<path id="XMLID_250_" class="st2" d="M1172,1351c-2-0.8-2.9-3-2.1-5l5.2-13.4c0.8-2,3-3,5-2.3l10.7,4.1c2,0.8,2.9,3,2.1,5
			l-5.2,13.4c-0.8,2-3,3-5,2.3L1172,1351z"/>
		<path id="XMLID_249_" class="st2" d="M1118,781.2c-2-0.8-2.9-3-2.1-5l5.2-13.4c0.8-2,3-3,5-2.3l10.7,4.1c2,0.8,2.9,3,2.2,5
			l-5.2,13.4c-0.8,2-3,3-5,2.3L1118,781.2z"/>
		<path id="XMLID_248_" class="st2" d="M1101.4,824.1c-2-0.8-2.9-3-2.1-5l5.2-13.4c0.8-2,3-3,5-2.3l10.7,4.1c2,0.8,2.9,3,2.1,5
			l-5.2,13.4c-0.8,2-3,3-5,2.3L1101.4,824.1z"/>
		<path id="XMLID_247_" class="st2" d="M1084.8,866.9c-2-0.8-2.9-3-2.1-5l5.2-13.4c0.8-2,3-3,5-2.3l10.7,4.1c2,0.8,2.9,3,2.1,5
			l-5.2,13.4c-0.8,2-3,3-5,2.3L1084.8,866.9z"/>
		<path id="XMLID_246_" class="st2" d="M1068.2,909.8c-2-0.8-2.9-3-2.1-5l5.2-13.4c0.8-2,3-3,5-2.3l10.7,4.1c2,0.8,2.9,3,2.2,5
			l-5.2,13.4c-0.8,2-3,3-5,2.3L1068.2,909.8z"/>
		<path id="XMLID_245_" class="st2" d="M1051.6,952.6c-2-0.8-2.9-3-2.1-5l5.2-13.4c0.8-2,3-3,5-2.3l10.7,4.1c2,0.8,2.9,3,2.1,5
			l-5.2,13.4c-0.8,2-3,3-5,2.3L1051.6,952.6z"/>
		<path id="XMLID_244_" class="st2" d="M1035,995.5c-2-0.8-2.9-3-2.1-5l5.2-13.4c0.8-2,3-3,5-2.3l10.7,4.1c2,0.8,2.9,3,2.2,5
			l-5.2,13.4c-0.8,2-3,3-5,2.3L1035,995.5z"/>
		<path id="XMLID_243_" class="st2" d="M1018.4,1038.4c-2-0.8-2.9-3-2.1-5l5.2-13.4c0.8-2,3-3,5-2.3l10.7,4.1c2,0.8,2.9,3,2.1,5
			l-5.2,13.4c-0.8,2-3,3-5,2.3L1018.4,1038.4z"/>
		<path id="XMLID_242_" class="st2" d="M1001.8,1081.2c-2-0.8-2.9-3-2.1-5l5.2-13.4c0.8-2,3-3,5-2.3l10.7,4.1c2,0.8,2.9,3,2.1,5
			l-5.2,13.4c-0.8,2-3,3-5,2.3L1001.8,1081.2z"/>
		<path id="XMLID_241_" class="st2" d="M985.2,1124.1c-2-0.8-2.9-3-2.1-5l5.2-13.4c0.8-2,3-3,5-2.3l10.7,4.1c2,0.8,2.9,3,2.1,5
			l-5.2,13.4c-0.8,2-3,3-5,2.3L985.2,1124.1z"/>
		<path id="XMLID_240_" class="st2" d="M968.6,1166.9c-2-0.8-2.9-3-2.1-5l5.2-13.4c0.8-2,3-3,5-2.3l10.7,4.1c2,0.8,2.9,3,2.2,5
			l-5.2,13.4c-0.8,2-3,3-5,2.3L968.6,1166.9z"/>
		<path id="XMLID_239_" class="st2" d="M952.1,1209.8c-2-0.8-2.9-3-2.1-5l5.2-13.4c0.8-2,3-3,5-2.3l10.7,4.1c2,0.8,2.9,3,2.1,5
			l-5.2,13.4c-0.8,2-3,3-5,2.3L952.1,1209.8z"/>
		<path id="XMLID_238_" class="st2" d="M935.5,1252.7c-2-0.8-2.9-3-2.1-5l5.2-13.4c0.8-2,3-3,5-2.3l10.7,4.1c2,0.8,2.9,3,2.1,5
			l-5.2,13.4c-0.8,2-3,3-5,2.3L935.5,1252.7z"/>
		<path id="XMLID_237_" class="st2" d="M920.1,1296.4c-2-0.8-2.9-3-2.1-5l5.2-13.4c0.8-2,3-3,5-2.3l10.7,4.1c2,0.8,2.9,3,2.1,5
			l-5.2,13.4c-0.8,2-3,3-5,2.3L920.1,1296.4z"/>
		<path id="XMLID_236_" class="st2" d="M903.5,1339.3c-2-0.8-2.9-3-2.1-5l5.2-13.4c0.8-2,3-3,5-2.3l10.7,4.1c2,0.8,2.9,3,2.1,5
			l-5.2,13.4c-0.8,2-3,3-5,2.3L903.5,1339.3z"/>
		<path id="XMLID_235_" class="st2" d="M907.9,1368c-0.3-1.1-1.1-2-2.2-2.4l-10.7-4.1c-2-0.8-4.2,0.3-5,2.3l-1.7,4.3H907.9z"/>
		<path id="XMLID_234_" class="st2" d="M1368,126.5l-3.6,9.3c-0.8,2,0.2,4.3,2.2,5l1.4,0.6V126.5z"/>
		<path id="XMLID_233_" class="st2" d="M1368,166.8l-10-3.9c-2-0.8-4.2,0.3-5,2.3l-5.2,13.4c-0.8,2,0.2,4.3,2.2,5l10.7,4.1
			c2,0.8,4.2-0.2,5-2.3l2.4-6.1V166.8z"/>
		<path id="XMLID_232_" class="st2" d="M1333.4,226.5c-2-0.8-2.9-3-2.2-5l5.2-13.4c0.8-2,3-3,5-2.3l10.7,4.1c2,0.8,2.9,3,2.2,5
			l-5.2,13.4c-0.8,2-3,3-5,2.3L1333.4,226.5z"/>
		<path id="XMLID_231_" class="st2" d="M1316.8,269.4c-2-0.8-2.9-3-2.2-5l5.2-13.4c0.8-2,3-3,5-2.3l10.7,4.1c2,0.8,2.9,3,2.2,5
			l-5.2,13.4c-0.8,2-3,3-5,2.3L1316.8,269.4z"/>
		<path id="XMLID_230_" class="st2" d="M1300.2,312.2c-2-0.8-2.9-3-2.2-5l5.2-13.4c0.8-2,3-3,5-2.3l10.7,4.1c2,0.8,2.9,3,2.2,5
			l-5.2,13.4c-0.8,2-3,3-5,2.3L1300.2,312.2z"/>
		<path id="XMLID_229_" class="st2" d="M1283.6,355.1c-2-0.8-2.9-3-2.2-5l5.2-13.4c0.8-2,3-3,5-2.3l10.7,4.1c2,0.8,2.9,3,2.2,5
			l-5.2,13.4c-0.8,2-3,3-5,2.3L1283.6,355.1z"/>
		<path id="XMLID_228_" class="st2" d="M1267,397.9c-2-0.8-2.9-3-2.2-5l5.2-13.4c0.8-2,3-3,5-2.3l10.7,4.1c2,0.8,2.9,3,2.2,5
			l-5.2,13.4c-0.8,2-3,3-5,2.3L1267,397.9z"/>
		<path id="XMLID_227_" class="st2" d="M1250.4,440.8c-2-0.8-2.9-3-2.2-5l5.2-13.4c0.8-2,3-3,5-2.3l10.7,4.1c2,0.8,2.9,3,2.2,5
			l-5.2,13.4c-0.8,2-3,3-5,2.3L1250.4,440.8z"/>
		<path id="XMLID_226_" class="st2" d="M1233.8,483.7c-2-0.8-2.9-3-2.2-5l5.2-13.4c0.8-2,3-3,5-2.3l10.7,4.1c2,0.8,2.9,3,2.2,5
			l-5.2,13.4c-0.8,2-3,3-5,2.3L1233.8,483.7z"/>
		<path id="XMLID_225_" class="st2" d="M1217.2,526.5c-2-0.8-2.9-3-2.2-5l5.2-13.4c0.8-2,3-3,5-2.3l10.7,4.1c2,0.8,2.9,3,2.2,5
			l-5.2,13.4c-0.8,2-3,3-5,2.3L1217.2,526.5z"/>
		<path id="XMLID_224_" class="st2" d="M1200.6,569.4c-2-0.8-2.9-3-2.1-5l5.2-13.4c0.8-2,3-3,5-2.3l10.7,4.1c2,0.8,2.9,3,2.2,5
			l-5.2,13.4c-0.8,2-3,3-5,2.3L1200.6,569.4z"/>
		<path id="XMLID_223_" class="st2" d="M1184.1,612.2c-2-0.8-2.9-3-2.2-5l5.2-13.4c0.8-2,3-3,5-2.3l10.7,4.1c2,0.8,2.9,3,2.2,5
			l-5.2,13.4c-0.8,2-3,3-5,2.3L1184.1,612.2z"/>
		<path id="XMLID_222_" class="st2" d="M1167.5,655.1c-2-0.8-2.9-3-2.2-5l5.2-13.4c0.8-2,3-3,5-2.3l10.7,4.1c2,0.8,2.9,3,2.2,5
			l-5.2,13.4c-0.8,2-3,3-5,2.3L1167.5,655.1z"/>
		<path id="XMLID_221_" class="st2" d="M1150.9,698c-2-0.8-2.9-3-2.2-5l5.2-13.4c0.8-2,3-3,5-2.3l10.7,4.1c2,0.8,2.9,3,2.2,5
			l-5.2,13.4c-0.8,2-3,3-5,2.3L1150.9,698z"/>
		<path id="XMLID_220_" class="st2" d="M1134.3,740.8c-2-0.8-2.9-3-2.2-5l5.2-13.4c0.8-2,3-3,5-2.3l10.7,4.1c2,0.8,2.9,3,2.2,5
			l-5.2,13.4c-0.8,2-3,3-5,2.3L1134.3,740.8z"/>
		<g id="XMLID_269_">
			
				<rect id="XMLID_126_" x="1094.1" y="910.3" transform="matrix(0.937 0.3492 -0.3492 0.937 395.3311 -363.6194)" class="st3" width="224.1" height="8.6"/>
		</g>
	</g>
</g>
<g id="Layer_12">
	<g id="XMLID_281_">
		<g id="XMLID_527_">
			<g id="XMLID_546_">
				<circle id="XMLID_553_" class="st4" cx="97.4" cy="204.2" r="7.5"/>
				<circle id="XMLID_552_" class="st4" cx="104.9" cy="211.7" r="7.5"/>
				<circle id="XMLID_551_" class="st4" cx="92.3" cy="213.3" r="7.5"/>
				<g id="XMLID_547_">
					<circle id="XMLID_550_" class="st5" cx="97.7" cy="208.3" r="2.3"/>
					<circle id="XMLID_549_" class="st5" cx="100" cy="210.6" r="2.3"/>
					<circle id="XMLID_548_" class="st5" cx="96.2" cy="211.1" r="2.3"/>
				</g>
			</g>
			<g id="XMLID_537_">
				<g id="XMLID_542_">
					<circle id="XMLID_545_" class="st4" cx="55.3" cy="186.3" r="5.5"/>
					<circle id="XMLID_544_" class="st4" cx="60.9" cy="191.9" r="5.5"/>
					<circle id="XMLID_543_" class="st4" cx="51.6" cy="193" r="5.5"/>
				</g>
				<g id="XMLID_538_">
					<circle id="XMLID_541_" class="st5" cx="55.6" cy="189" r="1.6"/>
					<circle id="XMLID_540_" class="st5" cx="57.2" cy="190.7" r="1.6"/>
					<circle id="XMLID_539_" class="st5" cx="54.5" cy="191" r="1.6"/>
				</g>
			</g>
			<g id="XMLID_528_">
				<g id="XMLID_533_">
					<circle id="XMLID_536_" class="st4" cx="112" cy="172.2" r="4.1"/>
					<circle id="XMLID_535_" class="st4" cx="116.1" cy="176.3" r="4.1"/>
					<circle id="XMLID_534_" class="st4" cx="109.3" cy="177.1" r="4.1"/>
				</g>
				<g id="XMLID_529_">
					<circle id="XMLID_532_" class="st5" cx="112.4" cy="174" r="1.2"/>
					<circle id="XMLID_531_" class="st5" cx="113.6" cy="175.2" r="1.2"/>
					<circle id="XMLID_530_" class="st5" cx="111.6" cy="175.5" r="1.2"/>
				</g>
			</g>
		</g>
		<g id="XMLID_282_">
			<g id="XMLID_327_">
				<g id="XMLID_519_">
					<circle id="XMLID_526_" class="st4" cx="57.8" cy="270.8" r="7.5"/>
					<circle id="XMLID_525_" class="st4" cx="61.9" cy="280.6" r="7.5"/>
					<circle id="XMLID_524_" class="st4" cx="49.7" cy="277.4" r="7.5"/>
					<g id="XMLID_520_">
						<circle id="XMLID_523_" class="st5" cx="56.5" cy="274.8" r="2.3"/>
						<circle id="XMLID_522_" class="st5" cx="57.8" cy="277.8" r="2.3"/>
						<circle id="XMLID_521_" class="st5" cx="54.1" cy="276.8" r="2.3"/>
					</g>
				</g>
				<g id="XMLID_511_">
					<circle id="XMLID_518_" class="st4" cx="93.5" cy="241.7" r="7.5"/>
					<circle id="XMLID_517_" class="st4" cx="101.1" cy="249.3" r="7.5"/>
					<circle id="XMLID_516_" class="st4" cx="88.5" cy="250.8" r="7.5"/>
					<g id="XMLID_512_">
						<circle id="XMLID_515_" class="st5" cx="93.9" cy="245.9" r="2.3"/>
						<circle id="XMLID_514_" class="st5" cx="96.2" cy="248.2" r="2.3"/>
						<circle id="XMLID_513_" class="st5" cx="92.3" cy="248.7" r="2.3"/>
					</g>
				</g>
				<g id="XMLID_503_">
					<circle id="XMLID_510_" class="st4" cx="109.1" cy="248.9" r="7.5"/>
					<circle id="XMLID_509_" class="st4" cx="116.6" cy="256.4" r="7.5"/>
					<circle id="XMLID_508_" class="st4" cx="104.1" cy="258" r="7.5"/>
					<g id="XMLID_504_">
						<circle id="XMLID_507_" class="st5" cx="109.4" cy="253" r="2.3"/>
						<circle id="XMLID_506_" class="st5" cx="111.7" cy="255.3" r="2.3"/>
						<circle id="XMLID_505_" class="st5" cx="107.9" cy="255.8" r="2.3"/>
					</g>
				</g>
				<g id="XMLID_492_">
					<circle id="XMLID_502_" class="st4" cx="132.9" cy="259.3" r="7.5"/>
					<circle id="XMLID_501_" class="st4" cx="140.5" cy="266.8" r="7.5"/>
					<circle id="XMLID_500_" class="st4" cx="127.9" cy="268.4" r="7.5"/>
					<g id="XMLID_493_">
						<circle id="XMLID_499_" class="st5" cx="133.3" cy="263.4" r="2.3"/>
						<circle id="XMLID_497_" class="st5" cx="135.6" cy="265.7" r="2.3"/>
						<circle id="XMLID_495_" class="st5" cx="131.7" cy="266.2" r="2.3"/>
					</g>
				</g>
				<g id="XMLID_483_">
					<circle id="XMLID_491_" class="st4" cx="83.6" cy="272.2" r="7.5"/>
					<circle id="XMLID_490_" class="st4" cx="91.1" cy="279.7" r="7.5"/>
					<circle id="XMLID_489_" class="st4" cx="78.5" cy="281.3" r="7.5"/>
					<g id="XMLID_484_">
						<circle id="XMLID_488_" class="st5" cx="83.9" cy="276.3" r="2.3"/>
						<circle id="XMLID_487_" class="st5" cx="86.2" cy="278.6" r="2.3"/>
						<circle id="XMLID_485_" class="st5" cx="82.4" cy="279.1" r="2.3"/>
					</g>
				</g>
				<g id="XMLID_475_">
					<circle id="XMLID_482_" class="st4" cx="119.2" cy="273.3" r="7.5"/>
					<circle id="XMLID_481_" class="st4" cx="126.7" cy="280.9" r="7.5"/>
					<circle id="XMLID_480_" class="st4" cx="114.2" cy="282.4" r="7.5"/>
					<g id="XMLID_476_">
						<circle id="XMLID_479_" class="st5" cx="119.5" cy="277.5" r="2.3"/>
						<circle id="XMLID_478_" class="st5" cx="121.8" cy="279.8" r="2.3"/>
						<circle id="XMLID_477_" class="st5" cx="116.5" cy="280.6" r="2.3"/>
					</g>
				</g>
				<g id="XMLID_467_">
					<circle id="XMLID_474_" class="st4" cx="111.6" cy="264.3" r="7.5"/>
					<circle id="XMLID_473_" class="st4" cx="119.1" cy="271.8" r="7.5"/>
					<circle id="XMLID_472_" class="st4" cx="106.5" cy="273.4" r="7.5"/>
					<g id="XMLID_468_">
						<circle id="XMLID_471_" class="st5" cx="111.9" cy="268.4" r="2.3"/>
						<circle id="XMLID_470_" class="st5" cx="114.2" cy="270.7" r="2.3"/>
						<circle id="XMLID_469_" class="st5" cx="110.4" cy="271.2" r="2.3"/>
					</g>
				</g>
				<g id="XMLID_388_">
					<circle id="XMLID_466_" class="st4" cx="65.3" cy="261.6" r="7.5"/>
					<circle id="XMLID_437_" class="st4" cx="69.5" cy="271.4" r="7.5"/>
					<circle id="XMLID_414_" class="st4" cx="57.3" cy="268.2" r="7.5"/>
					<g id="XMLID_389_">
						<circle id="XMLID_413_" class="st5" cx="64.1" cy="265.6" r="2.3"/>
						<circle id="XMLID_391_" class="st5" cx="65.4" cy="268.6" r="2.3"/>
						<circle id="XMLID_390_" class="st5" cx="61.6" cy="267.6" r="2.3"/>
					</g>
				</g>
				<g id="XMLID_380_">
					<circle id="XMLID_387_" class="st4" cx="82.5" cy="259.6" r="7.5"/>
					<circle id="XMLID_386_" class="st4" cx="86.7" cy="269.4" r="7.5"/>
					<circle id="XMLID_385_" class="st4" cx="74.4" cy="266.1" r="7.5"/>
					<g id="XMLID_381_">
						<circle id="XMLID_384_" class="st5" cx="81.3" cy="263.5" r="2.3"/>
						<circle id="XMLID_383_" class="st5" cx="82.5" cy="266.5" r="2.3"/>
						<circle id="XMLID_382_" class="st5" cx="78.8" cy="265.5" r="2.3"/>
					</g>
				</g>
				<g id="XMLID_372_">
					<circle id="XMLID_379_" class="st4" cx="99.6" cy="272.8" r="7.5"/>
					<circle id="XMLID_378_" class="st4" cx="104.9" cy="282.1" r="7.5"/>
					<circle id="XMLID_377_" class="st4" cx="92.4" cy="280.2" r="7.5"/>
					<g id="XMLID_373_">
						<circle id="XMLID_376_" class="st5" cx="98.9" cy="276.8" r="2.3"/>
						<circle id="XMLID_375_" class="st5" cx="100.4" cy="279.7" r="2.3"/>
						<circle id="XMLID_374_" class="st5" cx="96.6" cy="279.1" r="2.3"/>
					</g>
				</g>
				<g id="XMLID_363_">
					<g id="XMLID_368_">
						<circle id="XMLID_371_" class="st4" cx="75.6" cy="250.1" r="5.5"/>
						<circle id="XMLID_370_" class="st4" cx="81.1" cy="255.7" r="5.5"/>
						<circle id="XMLID_369_" class="st4" cx="71.9" cy="256.8" r="5.5"/>
					</g>
					<g id="XMLID_364_">
						<circle id="XMLID_367_" class="st5" cx="75.8" cy="252.8" r="1.6"/>
						<circle id="XMLID_366_" class="st5" cx="77.4" cy="254.5" r="1.6"/>
						<circle id="XMLID_365_" class="st5" cx="74.7" cy="254.8" r="1.6"/>
					</g>
				</g>
				<g id="XMLID_354_">
					<g id="XMLID_359_">
						<circle id="XMLID_362_" class="st4" cx="91.9" cy="255.9" r="5.5"/>
						<circle id="XMLID_361_" class="st4" cx="97.4" cy="261.5" r="5.5"/>
						<circle id="XMLID_360_" class="st4" cx="88.2" cy="262.6" r="5.5"/>
					</g>
					<g id="XMLID_355_">
						<circle id="XMLID_358_" class="st5" cx="92.1" cy="258.6" r="1.6"/>
						<circle id="XMLID_357_" class="st5" cx="93.8" cy="260.3" r="1.6"/>
						<circle id="XMLID_356_" class="st5" cx="91.1" cy="260.6" r="1.6"/>
					</g>
				</g>
				<g id="XMLID_345_">
					<g id="XMLID_350_">
						<circle id="XMLID_353_" class="st4" cx="120.3" cy="254.7" r="5.5"/>
						<circle id="XMLID_352_" class="st4" cx="125.8" cy="260.3" r="5.5"/>
						<circle id="XMLID_351_" class="st4" cx="117.8" cy="262.1" r="5.5"/>
					</g>
					<g id="XMLID_346_">
						<circle id="XMLID_349_" class="st5" cx="120.5" cy="257.4" r="1.6"/>
						<circle id="XMLID_348_" class="st5" cx="122.1" cy="259" r="1.6"/>
						<circle id="XMLID_347_" class="st5" cx="119.4" cy="259.4" r="1.6"/>
					</g>
				</g>
				<g id="XMLID_341_">
					<circle id="XMLID_344_" class="st4" cx="126.5" cy="269.2" r="4.1"/>
					<circle id="XMLID_343_" class="st4" cx="130.6" cy="273.3" r="4.1"/>
					<circle id="XMLID_342_" class="st4" cx="123.8" cy="274.2" r="4.1"/>
				</g>
				<g id="XMLID_337_">
					<circle id="XMLID_340_" class="st4" cx="96.3" cy="261.7" r="4.1"/>
					<circle id="XMLID_339_" class="st4" cx="100.4" cy="265.8" r="4.1"/>
					<circle id="XMLID_338_" class="st4" cx="93.6" cy="266.7" r="4.1"/>
				</g>
				<g id="XMLID_328_">
					<g id="XMLID_333_">
						<circle id="XMLID_336_" class="st4" cx="55.4" cy="258.8" r="4.1"/>
						<circle id="XMLID_335_" class="st4" cx="59.6" cy="262.9" r="4.1"/>
						<circle id="XMLID_334_" class="st4" cx="52.7" cy="263.7" r="4.1"/>
					</g>
					<g id="XMLID_329_">
						<circle id="XMLID_332_" class="st5" cx="55.8" cy="260.6" r="1.2"/>
						<circle id="XMLID_331_" class="st5" cx="57.1" cy="261.9" r="1.2"/>
						<circle id="XMLID_330_" class="st5" cx="55" cy="262.1" r="1.2"/>
					</g>
				</g>
			</g>
			<g id="XMLID_315_">
				<g id="XMLID_318_">
					<polygon id="XMLID_325_" class="st6" points="161.2,302.2 162.4,289.1 157,288.7 100.3,283.7 100.3,283.7 100.1,283.7 
						100,283.7 100,283.7 44.4,279.8 37.8,279.3 36.9,292.4 42.3,292.8 42.4,470.8 41.3,484.8 127.3,491.2 128.3,477.1 128,477.1 
						155.9,301.8 					"/>
					<g id="XMLID_320_">
						<polyline id="XMLID_323_" class="st2" points="74.5,294.8 58,293.8 50.1,470.4 50.1,471.6 57.1,472.2 67.4,472.6 						"/>
						<polyline id="XMLID_322_" class="st2" points="121.6,298.2 138,299.7 119.8,475.5 119.6,476.7 112.6,476.4 102.3,475.2 						
							"/>
					</g>
				</g>
				
					<rect id="XMLID_316_" x="83.3" y="296.5" transform="matrix(0.9973 7.388283e-002 -7.388283e-002 0.9973 28.7209 -5.7138)" class="st2" width="16.5" height="177.6"/>
			</g>
			<g id="XMLID_290_">
				<g id="XMLID_307_">
					<circle id="XMLID_314_" class="st4" cx="133.5" cy="272.8" r="7.5"/>
					<circle id="XMLID_313_" class="st4" cx="136.3" cy="281.3" r="7.5"/>
					<circle id="XMLID_312_" class="st4" cx="126.2" cy="280.2" r="7.5"/>
					<g id="XMLID_308_">
						<circle id="XMLID_311_" class="st5" cx="132.7" cy="276.8" r="2.3"/>
						<circle id="XMLID_310_" class="st5" cx="134.3" cy="279.7" r="2.3"/>
						<circle id="XMLID_309_" class="st5" cx="130.5" cy="279.1" r="2.3"/>
					</g>
				</g>
				<g id="XMLID_291_">
					<circle id="XMLID_305_" class="st4" cx="149.7" cy="277.5" r="7.5"/>
					<circle id="XMLID_301_" class="st4" cx="157.3" cy="285" r="7.5"/>
					<circle id="XMLID_300_" class="st4" cx="144.7" cy="286.6" r="7.5"/>
					<g id="XMLID_292_">
						<circle id="XMLID_296_" class="st5" cx="150.1" cy="281.7" r="2.3"/>
						<circle id="XMLID_294_" class="st5" cx="152.4" cy="283.9" r="2.3"/>
						<circle id="XMLID_293_" class="st5" cx="148.5" cy="284.4" r="2.3"/>
					</g>
				</g>
			</g>
		</g>
	</g>
</g>
<g id="Layer_13">
	<g id="XMLID_558_">
		<g id="XMLID_561_">
			<path id="XMLID_556_" class="st7" d="M343.7,78.5l-98.6,51.1L189,158.6c0,0,18.8-35.7,19.5-36.6c0.7-0.9,3.3-4.6,8.6,3.7
				c4.7,7.4,5.9,5.7,5.9,5.7c3-3.3-4.2-10.4-8.8-17c-4.6-6.6-8.7-6.6-10.6-4.1c-1.9,2.5-57.1,70.3-57.1,70.3l23.3,45
				c0,0,7.4,3.1,9.8,3.1c2.3,0,71.4-36.2,73.2-37.9c1.8-1.7,1-6.3,1.7-14.1c0.7-7.7,0.8-14.8,5.7-18.1c5.5-2.1,11.4,1.8,18.1,5.8
				c6.7,3.9,10,7.3,12.4,6.8c2.5-0.5,71.8-36,73.2-37.9c1.4-1.9,3.1-9.8,3.1-9.8L343.7,78.5z"/>
			<path id="XMLID_555_" class="st7" d="M250.6,95.6c2.8,7.6,4.4,17.5,8.8,17c0,0,2.6-0.7-1.3-8.1c-4.6-8.8,0.8-9.1,2-9.2
				c1.2,0,41.1,5.2,41.1,5.2l42.5-22c0,0-87.2,5.9-90.4,6C250.2,84.7,247.8,88,250.6,95.6z"/>
		</g>
		<path id="XMLID_554_" class="st2" d="M245.2,180.1c1.3,2.5,0.3,5.7-2.2,7l-59.4,30.8c-2.5,1.3-5.7,0.3-7-2.2l-14.4-27.9
			c-1.3-2.5-0.3-5.7,2.2-7l59.4-30.8c2.5-1.3,5.7-0.3,7,2.2L245.2,180.1z"/>
		<path id="XMLID_267_" class="st2" d="M354.9,123.4c1.3,2.5,0.3,5.7-2.2,7l-59.4,30.8c-2.5,1.3-5.7,0.3-7-2.2L271.9,131
			c-1.3-2.5-0.3-5.7,2.2-7l59.4-30.8c2.5-1.3,5.7-0.3,7,2.2L354.9,123.4z"/>
	</g>
</g>
<g id="Layer_11">
	<g id="XMLID_270_">
		<g id="XMLID_272_">
			<path id="XMLID_288_" class="st8" d="M135.5,567.3c17.8-25.2,52.7-31.2,78.1-13.4c25.4,17.8,31.5,52.6,13.7,77.8
				c-17.8,25.2-52.7,31.2-78.1,13.4C123.8,627.2,117.7,592.4,135.5,567.3z"/>
			<polygon id="XMLID_287_" class="st8" points="210.8,715.9 182.8,719.4 171.3,711.4 194.2,678.9 -1.9,541.4 -12.2,556.1 
				-26.1,546.3 -26.1,546.2 -31.8,532.2 -47.4,554.4 -33,556 -33.4,556.6 -23.3,563.7 -24.3,573.2 -77.4,648.5 118.7,785.9 
				148.4,743.8 159.8,751.9 168.2,776.2 173.3,779.8 215.8,719.5 			"/>
			<path id="XMLID_279_" class="st8" d="M35.3,497.1c17.8-25.2,52.7-31.2,78.1-13.4c25.4,17.8,31.5,52.6,13.7,77.8
				c-17.8,25.2-52.7,31.2-78.1,13.4C23.7,557.1,17.5,522.2,35.3,497.1z"/>
		</g>
		
			<linearGradient id="XMLID_274_" gradientUnits="userSpaceOnUse" x1="1679.5115" y1="878.0556" x2="2437.3801" y2="878.0556" gradientTransform="matrix(-0.6615 -0.2064 -0.2979 0.9546 2030.718 497.4518)">
			<stop  offset="0" style="stop-color:#FFFFFF;stop-opacity:0"/>
			<stop  offset="0.9104" style="stop-color:#FFFFFF;stop-opacity:0.9104"/>
			<stop  offset="1" style="stop-color:#FFFFFF"/>
		</linearGradient>
		<polyline id="XMLID_271_" class="st9" points="215.8,719.5 703.1,844.9 613.2,1133 425.9,1074.5 173.3,779.8 		"/>
	</g>
</g>
<g id="Layer_14">
	<g id="XMLID_559_">
		<g id="XMLID_566_">
			<g id="XMLID_593_" class="st10">
				<path id="XMLID_598_" class="st11" d="M231.4,1188.1c1.6-2.4,4.8-3.1,7.2-1.6l2.2-3.4c-2.4-1.6-3.1-4.8-1.6-7.2
					c1.5-2.4,4.8-3.1,7.2-1.6l2.3-3.5c-2.4-1.6-3.1-4.8-1.6-7.2c1.6-2.4,4.8-3.1,7.2-1.6l2.8-4.3c-10.1-6.5-13.1-19.9-6.6-30
					c6.5-10.1,19.9-13,30-6.6l2.8-4.3c-2.4-1.6-3.1-4.8-1.6-7.2c1.6-2.4,4.8-3.1,7.2-1.6l2.2-3.4c-2.4-1.6-3.1-4.8-1.6-7.2
					c1.5-2.4,4.8-3.1,7.2-1.6l2.3-3.5c-2.4-1.6-3.1-4.8-1.6-7.2c1.6-2.4,4.8-3.1,7.2-1.6l2.7-4.3L77.4,932.4l-2.7,4.3
					c2.4,1.6,3.1,4.8,1.6,7.2c-1.5,2.4-4.8,3.1-7.2,1.6l-2.3,3.5c2.4,1.6,3.1,4.8,1.6,7.2c-1.5,2.4-4.8,3.1-7.2,1.6l-2.2,3.4
					c2.4,1.6,3.1,4.8,1.6,7.2c-1.5,2.4-4.8,3.1-7.2,1.6l-2.8,4.3c10.1,6.5,13.1,19.9,6.6,30c-6.5,10.1-19.9,13.1-30,6.6l-2.8,4.3
					c2.4,1.6,3.1,4.8,1.6,7.2c-1.5,2.4-4.8,3.1-7.2,1.6l-2.3,3.5c2.4,1.6,3.1,4.8,1.6,7.2c-1.6,2.4-4.8,3.1-7.2,1.6l-2.2,3.4
					c2.4,1.6,3.1,4.8,1.6,7.2c-1.5,2.4-4.8,3.1-7.2,1.6l-2.3,3.6l229.8,146.8l2.3-3.6C230.6,1193.8,229.9,1190.6,231.4,1188.1z"/>
			</g>
			<g id="XMLID_590_">
				<path id="XMLID_592_" class="st1" d="M236.4,1185.1c1.6-2.4,4.8-3.1,7.2-1.6l2.2-3.4c-2.4-1.6-3.1-4.8-1.6-7.2
					c1.5-2.4,4.8-3.1,7.2-1.6l2.3-3.5c-2.4-1.6-3.1-4.8-1.6-7.2c1.6-2.4,4.8-3.1,7.2-1.6l2.8-4.3c-10.1-6.5-13.1-19.9-6.6-30
					c6.5-10.1,19.9-13,30-6.6l2.8-4.3c-2.4-1.6-3.1-4.8-1.6-7.2c1.6-2.4,4.8-3.1,7.2-1.6l2.2-3.4c-2.4-1.6-3.1-4.8-1.6-7.2
					c1.5-2.4,4.8-3.1,7.2-1.6l2.3-3.5c-2.4-1.6-3.1-4.8-1.6-7.2c1.6-2.4,4.8-3.1,7.2-1.6l2.7-4.3L82.4,929.4l-2.7,4.3
					c2.4,1.6,3.1,4.8,1.6,7.2c-1.5,2.4-4.8,3.1-7.2,1.6l-2.3,3.5c2.4,1.6,3.1,4.8,1.6,7.2c-1.5,2.4-4.8,3.1-7.2,1.6l-2.2,3.4
					c2.4,1.6,3.1,4.8,1.6,7.2c-1.5,2.4-4.8,3.1-7.2,1.6l-2.8,4.3c10.1,6.5,13.1,19.9,6.6,30c-6.5,10.1-19.9,13.1-30,6.6l-2.8,4.3
					c2.4,1.6,3.1,4.8,1.6,7.2c-1.5,2.4-4.8,3.1-7.2,1.6l-2.3,3.5c2.4,1.6,3.1,4.8,1.6,7.2c-1.6,2.4-4.8,3.1-7.2,1.6l-2.2,3.4
					c2.4,1.6,3.1,4.8,1.6,7.2c-1.5,2.4-4.8,3.1-7.2,1.6l-2.3,3.6l229.8,146.8l2.3-3.6C235.6,1190.8,234.9,1187.6,236.4,1185.1z"/>
			</g>
		</g>
		<path id="XMLID_565_" class="st12" d="M212.2,1163.7c-1,1.5-3,2-4.5,1L43.5,1059.8c-1.5-1-2-3-1-4.5l60.4-94.5c1-1.5,3-2,4.5-1
			l164.2,105c1.5,1,2,3,1,4.5L212.2,1163.7z"/>
		<g id="XMLID_560_">
			<polygon id="XMLID_564_" class="st2" points="123.8,1069.6 123.2,1075.3 127.6,1079.1 121.9,1080.3 119.7,1085.6 116.8,1080.6 
				111,1080.1 114.9,1075.8 113.6,1070.2 118.9,1072.6 			"/>
			<polygon id="XMLID_563_" class="st2" points="145.7,1083.6 145,1089.3 149.4,1093.1 143.8,1094.3 141.5,1099.6 138.7,1094.6 
				132.9,1094.1 136.8,1089.8 135.5,1084.2 140.7,1086.6 			"/>
			<polygon id="XMLID_562_" class="st2" points="167.5,1097.5 166.9,1103.3 171.3,1107.1 165.6,1108.2 163.4,1113.6 160.5,1108.5 
				154.7,1108.1 158.6,1103.8 157.3,1098.1 162.6,1100.5 			"/>
		</g>
	</g>
</g>
<g id="Layer_15">
	<g id="XMLID_567_">
		<g id="XMLID_575_">
			<g id="XMLID_591_" class="st10">
				<path id="XMLID_594_" class="st11" d="M271.9,949.2c-1.1-2.1-0.3-4.8,1.8-5.9l-1.6-3c-2.1,1.1-4.8,0.3-5.9-1.8
					c-1.1-2.1-0.3-4.8,1.8-5.9l-1.6-3.1c-2.1,1.1-4.8,0.3-5.9-1.8c-1.1-2.1-0.3-4.8,1.8-5.9l-2-3.8c-8.9,4.7-19.9,1.2-24.5-7.7
					c-4.7-8.9-1.2-19.9,7.7-24.5l-2-3.8c-2.1,1.1-4.8,0.3-5.9-1.8c-1.1-2.1-0.3-4.8,1.8-5.9l-1.6-3c-2.1,1.1-4.8,0.3-5.9-1.8
					c-1.1-2.1-0.3-4.8,1.8-5.9l-1.6-3.1c-2.1,1.1-4.8,0.3-5.9-1.8c-1.1-2.1-0.3-4.8,1.8-5.9l-2-3.8L21.8,954.7l2,3.8
					c2.1-1.1,4.8-0.3,5.9,1.8c1.1,2.1,0.3,4.8-1.8,5.9l1.6,3.1c2.1-1.1,4.8-0.3,5.9,1.8c1.1,2.1,0.3,4.8-1.8,5.9l1.6,3
					c2.1-1.1,4.8-0.3,5.9,1.8c1.1,2.1,0.3,4.8-1.8,5.9l2,3.8c8.9-4.7,19.9-1.2,24.5,7.7c4.7,8.9,1.2,19.9-7.7,24.5l2,3.8
					c2.1-1.1,4.8-0.3,5.9,1.8c1.1,2.1,0.3,4.8-1.8,5.9l1.6,3.1c2.1-1.1,4.8-0.3,5.9,1.8c1.1,2.1,0.3,4.8-1.8,5.9l1.6,3
					c2.1-1.1,4.8-0.3,5.9,1.8c1.1,2.1,0.3,4.8-1.8,5.9l1.6,3.2l202.5-105.9l-1.6-3.2C275.6,952.1,273,951.3,271.9,949.2z"/>
			</g>
			<g id="XMLID_588_">
				<path id="XMLID_589_" class="st6" d="M276.9,946.2c-1.1-2.1-0.3-4.8,1.8-5.9l-1.6-3c-2.1,1.1-4.8,0.3-5.9-1.8
					c-1.1-2.1-0.3-4.8,1.8-5.9l-1.6-3.1c-2.1,1.1-4.8,0.3-5.9-1.8c-1.1-2.1-0.3-4.8,1.8-5.9l-2-3.8c-8.9,4.7-19.9,1.2-24.5-7.7
					c-4.7-8.9-1.2-19.9,7.7-24.5l-2-3.8c-2.1,1.1-4.8,0.3-5.9-1.8c-1.1-2.1-0.3-4.8,1.8-5.9l-1.6-3c-2.1,1.1-4.8,0.3-5.9-1.8
					c-1.1-2.1-0.3-4.8,1.8-5.9l-1.6-3.1c-2.1,1.1-4.8,0.3-5.9-1.8c-1.1-2.1-0.3-4.8,1.8-5.9l-2-3.8L26.8,951.7l2,3.8
					c2.1-1.1,4.8-0.3,5.9,1.8c1.1,2.1,0.3,4.8-1.8,5.9l1.6,3.1c2.1-1.1,4.8-0.3,5.9,1.8c1.1,2.1,0.3,4.8-1.8,5.9l1.6,3
					c2.1-1.1,4.8-0.3,5.9,1.8c1.1,2.1,0.3,4.8-1.8,5.9l2,3.8c8.9-4.7,19.9-1.2,24.5,7.7c4.7,8.9,1.2,19.9-7.7,24.5l2,3.8
					c2.1-1.1,4.8-0.3,5.9,1.8c1.1,2.1,0.3,4.8-1.8,5.9l1.6,3.1c2.1-1.1,4.8-0.3,5.9,1.8c1.1,2.1,0.3,4.8-1.8,5.9l1.6,3
					c2.1-1.1,4.8-0.3,5.9,1.8c1.1,2.1,0.3,4.8-1.8,5.9l1.6,3.2l202.5-105.9l-1.6-3.2C280.6,949.1,278,948.3,276.9,946.2z"/>
			</g>
		</g>
		<path id="XMLID_573_" class="st12" d="M251.2,954.8c0.7,1.3,0.2,3-1.2,3.7l-144.7,75.7c-1.3,0.7-3,0.2-3.7-1.2l-43.6-83.3
			c-0.7-1.3-0.2-3,1.2-3.7L204,870.4c1.3-0.7,3-0.2,3.7,1.2L251.2,954.8z"/>
		<g id="XMLID_568_">
			<polygon id="XMLID_572_" class="st2" points="146,979.9 149.9,982.7 154.5,981.1 153,985.8 155.9,989.6 151.1,989.6 148.3,993.6 
				146.8,989 142.2,987.6 146.1,984.7 			"/>
			<polygon id="XMLID_571_" class="st2" points="165.2,969.8 169.2,972.7 173.7,971.1 172.2,975.7 175.2,979.5 170.3,979.5 
				167.6,983.5 166.1,978.9 161.4,977.5 165.4,974.7 			"/>
			<polygon id="XMLID_570_" class="st2" points="184.5,959.8 188.4,962.6 193,961 191.5,965.6 194.4,969.5 189.6,969.5 186.8,973.4 
				185.3,968.8 180.7,967.4 184.6,964.6 			"/>
		</g>
	</g>
</g>
<g id="Layer_2">
	<rect id="XMLID_2_" class="st13" width="1368" height="81.6"/>
	<g id="XMLID_3_">
		<path id="XMLID_576_" d="M1119,1316.5H285c-6.6,0-12-5.4-12-12V170.3c0-6.6,5.4-12,12-12h834c6.6,0,12,5.4,12,12v1134.1
			C1131,1311.1,1125.6,1316.5,1119,1316.5z"/>
		<path id="XMLID_574_" class="st14" d="M1119,1316.5H285c-6.6,0-12-5.4-12-12V170.3c0-6.6,5.4-12,12-12h834c6.6,0,12,5.4,12,12
			v1134.1C1131,1311.1,1125.6,1316.5,1119,1316.5z"/>
	</g>
	<path id="XMLID_4_" class="st15" d="M1065,1263H337c-6.6,0-12-5.4-12-12V215c0-6.6,5.4-12,12-12h728c6.6,0,12,5.4,12,12v1036
		C1077,1257.6,1071.6,1263,1065,1263z"/>
</g>
<g id="Layer_3" class="st16">
	<g id="XMLID_805_">
		<circle id="XMLID_853_" class="st17" cx="356" cy="1288.1" r="11"/>
		<circle id="XMLID_852_" class="st17" cx="316" cy="1288.1" r="11"/>
		<circle id="XMLID_851_" class="st17" cx="483.2" cy="1288.1" r="11"/>
		<circle id="XMLID_850_" class="st17" cx="441.2" cy="1288.1" r="11"/>
		<circle id="XMLID_849_" class="st17" cx="398" cy="1288.1" r="11"/>
		<circle id="XMLID_848_" class="st17" cx="528" cy="1288.1" r="11"/>
		<circle id="XMLID_847_" class="st17" cx="568" cy="1288.1" r="11"/>
		<circle id="XMLID_818_" class="st17" cx="608" cy="1288.1" r="11"/>
		<circle id="XMLID_817_" class="st17" cx="648" cy="1288.1" r="11"/>
		<circle id="XMLID_816_" class="st17" cx="688" cy="1288.1" r="11"/>
		<circle id="XMLID_815_" class="st17" cx="728" cy="1288.1" r="11"/>
		<circle id="XMLID_814_" class="st17" cx="768" cy="1288.1" r="11"/>
		<circle id="XMLID_813_" class="st17" cx="808" cy="1288.1" r="11"/>
		<circle id="XMLID_812_" class="st17" cx="848" cy="1288.1" r="11"/>
		<circle id="XMLID_811_" class="st17" cx="888" cy="1288.1" r="11"/>
		<circle id="XMLID_810_" class="st17" cx="928" cy="1288.1" r="11"/>
		<circle id="XMLID_809_" class="st17" cx="968" cy="1288.1" r="11"/>
		<circle id="XMLID_808_" class="st17" cx="1008" cy="1288.1" r="11"/>
		<circle id="XMLID_807_" class="st17" cx="1048" cy="1288.1" r="11"/>
		<circle id="XMLID_806_" class="st17" cx="1088" cy="1288.1" r="11"/>
	</g>
</g>
<g id="Layer_3_copy_3">
	<g id="XMLID_462_">
		<circle id="XMLID_602_" class="st18" cx="353" cy="1287.1" r="11"/>
		<circle id="XMLID_601_" class="st18" cx="313" cy="1287.1" r="11"/>
		<circle id="XMLID_600_" class="st18" cx="480.2" cy="1287.1" r="11"/>
		<circle id="XMLID_599_" class="st18" cx="438.2" cy="1287.1" r="11"/>
		<circle id="XMLID_597_" class="st18" cx="395" cy="1287.1" r="11"/>
		<circle id="XMLID_596_" class="st18" cx="525" cy="1287.1" r="11"/>
		<circle id="XMLID_595_" class="st18" cx="565" cy="1287.1" r="11"/>
		<circle id="XMLID_586_" class="st18" cx="605" cy="1287.1" r="11"/>
		<circle id="XMLID_585_" class="st18" cx="645" cy="1287.1" r="11"/>
		<circle id="XMLID_583_" class="st18" cx="685" cy="1287.1" r="11"/>
		<circle id="XMLID_582_" class="st18" cx="725" cy="1287.1" r="11"/>
		<circle id="XMLID_581_" class="st18" cx="765" cy="1287.1" r="11"/>
		<circle id="XMLID_580_" class="st18" cx="805" cy="1287.1" r="11"/>
		<circle id="XMLID_578_" class="st18" cx="845" cy="1287.1" r="11"/>
		<circle id="XMLID_498_" class="st18" cx="885" cy="1287.1" r="11"/>
		<circle id="XMLID_494_" class="st18" cx="925" cy="1287.1" r="11"/>
		<circle id="XMLID_486_" class="st18" cx="965" cy="1287.1" r="11"/>
		<circle id="XMLID_465_" class="st18" cx="1005" cy="1287.1" r="11"/>
		<circle id="XMLID_464_" class="st18" cx="1045" cy="1287.1" r="11"/>
		<circle id="XMLID_463_" class="st18" cx="1085" cy="1287.1" r="11"/>
	</g>
</g>
<g id="Layer_3_copy_2" class="st16">
	<g id="XMLID_739_">
		<circle id="XMLID_760_" class="st17" cx="355.3" cy="183.7" r="11"/>
		<circle id="XMLID_759_" class="st17" cx="315.3" cy="183.7" r="11"/>
		<circle id="XMLID_758_" class="st17" cx="482.5" cy="183.7" r="11"/>
		<circle id="XMLID_757_" class="st17" cx="440.5" cy="183.7" r="11"/>
		<circle id="XMLID_756_" class="st17" cx="397.3" cy="183.7" r="11"/>
		<circle id="XMLID_755_" class="st17" cx="527.3" cy="183.7" r="11"/>
		<circle id="XMLID_754_" class="st17" cx="567.3" cy="183.7" r="11"/>
		<circle id="XMLID_753_" class="st17" cx="607.3" cy="183.7" r="11"/>
		<circle id="XMLID_752_" class="st17" cx="647.3" cy="183.7" r="11"/>
		<circle id="XMLID_751_" class="st17" cx="687.3" cy="183.7" r="11"/>
		<circle id="XMLID_750_" class="st17" cx="727.3" cy="183.7" r="11"/>
		<circle id="XMLID_749_" class="st17" cx="767.3" cy="183.7" r="11"/>
		<circle id="XMLID_748_" class="st17" cx="807.3" cy="183.7" r="11"/>
		<circle id="XMLID_747_" class="st17" cx="847.3" cy="183.7" r="11"/>
		<g id="XMLID_745_">
			<circle id="XMLID_746_" class="st17" cx="887.3" cy="183.7" r="11"/>
		</g>
		<circle id="XMLID_744_" class="st17" cx="927.3" cy="183.7" r="11"/>
		<circle id="XMLID_743_" class="st17" cx="967.3" cy="183.7" r="11"/>
		<circle id="XMLID_742_" class="st17" cx="1007.3" cy="183.7" r="11"/>
		<circle id="XMLID_741_" class="st17" cx="1047.3" cy="183.7" r="11"/>
		<circle id="XMLID_740_" class="st17" cx="1087.3" cy="183.7" r="11"/>
	</g>
</g>
<g id="Layer_3_copy">
	<g id="XMLID_638_">
		<circle id="XMLID_660_" class="st18" cx="352.3" cy="182.7" r="11"/>
		<circle id="XMLID_659_" class="st18" cx="312.3" cy="182.7" r="11"/>
		<circle id="XMLID_658_" class="st18" cx="479.5" cy="182.7" r="11"/>
		<circle id="XMLID_657_" class="st18" cx="437.5" cy="182.7" r="11"/>
		<circle id="XMLID_656_" class="st18" cx="394.3" cy="182.7" r="11"/>
		<circle id="XMLID_655_" class="st18" cx="524.3" cy="182.7" r="11"/>
		<circle id="XMLID_654_" class="st18" cx="564.3" cy="182.7" r="11"/>
		<circle id="XMLID_653_" class="st18" cx="604.3" cy="182.7" r="11"/>
		<circle id="XMLID_652_" class="st18" cx="644.3" cy="182.7" r="11"/>
		<circle id="XMLID_651_" class="st18" cx="684.3" cy="182.7" r="11"/>
		<circle id="XMLID_650_" class="st18" cx="724.3" cy="182.7" r="11"/>
		<circle id="XMLID_649_" class="st18" cx="764.3" cy="182.7" r="11"/>
		<circle id="XMLID_648_" class="st18" cx="804.3" cy="182.7" r="11"/>
		<circle id="XMLID_647_" class="st18" cx="844.3" cy="182.7" r="11"/>
		<g id="XMLID_645_">
			<circle id="XMLID_646_" class="st18" cx="884.3" cy="182.7" r="11"/>
		</g>
		<circle id="XMLID_644_" class="st18" cx="924.3" cy="182.7" r="11"/>
		<circle id="XMLID_643_" class="st18" cx="964.3" cy="182.7" r="11"/>
		<circle id="XMLID_642_" class="st18" cx="1004.3" cy="182.7" r="11"/>
		<circle id="XMLID_641_" class="st18" cx="1044.3" cy="182.7" r="11"/>
		<circle id="XMLID_640_" class="st18" cx="1084.3" cy="182.7" r="11"/>
	</g>
</g>
<g id="Layer_4" class="st19">
	<circle id="XMLID_45_" class="st20" cx="1101.8" cy="214" r="11"/>
	<circle id="XMLID_46_" class="st20" cx="1101.8" cy="254" r="11"/>
	<circle id="XMLID_47_" class="st20" cx="1101.8" cy="294" r="11"/>
	<circle id="XMLID_48_" class="st20" cx="1101.8" cy="334" r="11"/>
	<circle id="XMLID_49_" class="st20" cx="1101.8" cy="374" r="11"/>
	<circle id="XMLID_50_" class="st20" cx="1101.8" cy="414" r="11"/>
	<circle id="XMLID_51_" class="st20" cx="1101.8" cy="454" r="11"/>
	<circle id="XMLID_52_" class="st20" cx="1101.8" cy="495" r="11"/>
	<circle id="XMLID_53_" class="st20" cx="1101.8" cy="535" r="11"/>
	<circle id="XMLID_54_" class="st20" cx="1101.8" cy="575" r="11"/>
	<circle id="XMLID_55_" class="st20" cx="1101.8" cy="615" r="11"/>
	<circle id="XMLID_56_" class="st20" cx="1101.8" cy="655" r="11"/>
	<circle id="XMLID_57_" class="st20" cx="1101.8" cy="695" r="11"/>
	<circle id="XMLID_58_" class="st20" cx="1101.8" cy="735" r="11"/>
	<circle id="XMLID_59_" class="st20" cx="1101.8" cy="775" r="11"/>
	<circle id="XMLID_60_" class="st20" cx="1101.8" cy="815" r="11"/>
	<circle id="XMLID_61_" class="st20" cx="1101.8" cy="855" r="11"/>
	<circle id="XMLID_62_" class="st20" cx="1101.8" cy="895" r="11"/>
	<circle id="XMLID_63_" class="st20" cx="1101.8" cy="935" r="11"/>
	<circle id="XMLID_64_" class="st20" cx="1101.8" cy="975" r="11"/>
	<circle id="XMLID_65_" class="st20" cx="1101.8" cy="1015" r="11"/>
	<circle id="XMLID_66_" class="st20" cx="1101.8" cy="1055" r="11"/>
	<circle id="XMLID_67_" class="st20" cx="1101.8" cy="1095" r="11"/>
	<circle id="XMLID_68_" class="st20" cx="1101.8" cy="1135" r="11"/>
	<circle id="XMLID_69_" class="st20" cx="1101.8" cy="1175" r="11"/>
	<circle id="XMLID_70_" class="st20" cx="1101.8" cy="1215" r="11"/>
	<circle id="XMLID_71_" class="st20" cx="1101.8" cy="1255" r="11"/>
</g>
<g id="Layer_4_copy" class="st16">
	<g id="XMLID_917_">
		<circle id="XMLID_944_" class="st17" cx="304.3" cy="212.5" r="11"/>
		<circle id="XMLID_943_" class="st17" cx="304.3" cy="252.5" r="11"/>
		<circle id="XMLID_942_" class="st17" cx="304.3" cy="292.5" r="11"/>
		<circle id="XMLID_941_" class="st17" cx="304.3" cy="332.5" r="11"/>
		<circle id="XMLID_940_" class="st17" cx="304.3" cy="372.5" r="11"/>
		<circle id="XMLID_939_" class="st17" cx="304.3" cy="412.5" r="11"/>
		<circle id="XMLID_938_" class="st17" cx="304.3" cy="452.5" r="11"/>
		<circle id="XMLID_937_" class="st17" cx="304.3" cy="493.5" r="11"/>
		<circle id="XMLID_936_" class="st17" cx="304.3" cy="533.5" r="11"/>
		<circle id="XMLID_935_" class="st17" cx="304.3" cy="573.5" r="11"/>
		<circle id="XMLID_934_" class="st17" cx="304.3" cy="613.5" r="11"/>
		<circle id="XMLID_933_" class="st17" cx="304.3" cy="653.5" r="11"/>
		<circle id="XMLID_932_" class="st17" cx="304.3" cy="693.5" r="11"/>
		<circle id="XMLID_931_" class="st17" cx="304.3" cy="733.5" r="11"/>
		<circle id="XMLID_930_" class="st17" cx="304.3" cy="773.5" r="11"/>
		<circle id="XMLID_929_" class="st17" cx="304.3" cy="813.5" r="11"/>
		<circle id="XMLID_928_" class="st17" cx="304.3" cy="853.5" r="11"/>
		<circle id="XMLID_927_" class="st17" cx="304.3" cy="893.5" r="11"/>
		<circle id="XMLID_926_" class="st17" cx="304.3" cy="933.5" r="11"/>
		<circle id="XMLID_925_" class="st17" cx="304.3" cy="973.5" r="11"/>
		<circle id="XMLID_924_" class="st17" cx="304.3" cy="1013.5" r="11"/>
		<circle id="XMLID_923_" class="st17" cx="304.3" cy="1053.5" r="11"/>
		<circle id="XMLID_922_" class="st17" cx="304.3" cy="1093.5" r="11"/>
		<circle id="XMLID_921_" class="st17" cx="304.3" cy="1133.5" r="11"/>
		<circle id="XMLID_920_" class="st17" cx="304.3" cy="1173.5" r="11"/>
		<circle id="XMLID_919_" class="st17" cx="304.3" cy="1213.5" r="11"/>
		<circle id="XMLID_918_" class="st17" cx="304.3" cy="1253.5" r="11"/>
	</g>
</g>
<g id="Layer_4_copy_5">
	<g id="XMLID_609_">
		<circle id="XMLID_703_" class="st18" cx="301.3" cy="211.5" r="11"/>
		<circle id="XMLID_702_" class="st18" cx="301.3" cy="251.5" r="11"/>
		<circle id="XMLID_701_" class="st18" cx="301.3" cy="291.5" r="11"/>
		<circle id="XMLID_700_" class="st18" cx="301.3" cy="331.5" r="11"/>
		<circle id="XMLID_699_" class="st18" cx="301.3" cy="371.5" r="11"/>
		<circle id="XMLID_698_" class="st18" cx="301.3" cy="411.5" r="11"/>
		<circle id="XMLID_697_" class="st18" cx="301.3" cy="451.5" r="11"/>
		<circle id="XMLID_630_" class="st18" cx="301.3" cy="492.5" r="11"/>
		<circle id="XMLID_629_" class="st18" cx="301.3" cy="532.5" r="11"/>
		<circle id="XMLID_628_" class="st18" cx="301.3" cy="572.5" r="11"/>
		<circle id="XMLID_627_" class="st18" cx="301.3" cy="612.5" r="11"/>
		<circle id="XMLID_626_" class="st18" cx="301.3" cy="652.5" r="11"/>
		<circle id="XMLID_625_" class="st18" cx="301.3" cy="692.5" r="11"/>
		<circle id="XMLID_624_" class="st18" cx="301.3" cy="732.5" r="11"/>
		<circle id="XMLID_623_" class="st18" cx="301.3" cy="772.5" r="11"/>
		<circle id="XMLID_622_" class="st18" cx="301.3" cy="812.5" r="11"/>
		<circle id="XMLID_621_" class="st18" cx="301.3" cy="852.5" r="11"/>
		<circle id="XMLID_620_" class="st18" cx="301.3" cy="892.5" r="11"/>
		<circle id="XMLID_619_" class="st18" cx="301.3" cy="932.5" r="11"/>
		<circle id="XMLID_618_" class="st18" cx="301.3" cy="972.5" r="11"/>
		<circle id="XMLID_617_" class="st18" cx="301.3" cy="1012.5" r="11"/>
		<circle id="XMLID_616_" class="st18" cx="301.3" cy="1052.5" r="11"/>
		<circle id="XMLID_614_" class="st18" cx="301.3" cy="1092.5" r="11"/>
		<circle id="XMLID_613_" class="st18" cx="301.3" cy="1132.5" r="11"/>
		<circle id="XMLID_612_" class="st18" cx="301.3" cy="1172.5" r="11"/>
		<circle id="XMLID_611_" class="st18" cx="301.3" cy="1212.5" r="11"/>
		<circle id="XMLID_610_" class="st18" cx="301.3" cy="1252.5" r="11"/>
	</g>
</g>
<g id="Layer_4_copy_3" class="st16">
	<g id="XMLID_819_">
		<circle id="XMLID_846_" class="st17" cx="1104.3" cy="212.5" r="11"/>
		<circle id="XMLID_845_" class="st17" cx="1104.3" cy="252.5" r="11"/>
		<circle id="XMLID_844_" class="st17" cx="1104.3" cy="292.5" r="11"/>
		<circle id="XMLID_843_" class="st17" cx="1104.3" cy="332.5" r="11"/>
		<circle id="XMLID_842_" class="st17" cx="1104.3" cy="372.5" r="11"/>
		<circle id="XMLID_841_" class="st17" cx="1104.3" cy="412.5" r="11"/>
		<circle id="XMLID_840_" class="st17" cx="1104.3" cy="452.5" r="11"/>
		<circle id="XMLID_839_" class="st17" cx="1104.3" cy="493.5" r="11"/>
		<circle id="XMLID_838_" class="st17" cx="1104.3" cy="533.5" r="11"/>
		<circle id="XMLID_837_" class="st17" cx="1104.7" cy="573.4" r="11"/>
		<circle id="XMLID_836_" class="st17" cx="1104.3" cy="613.5" r="11"/>
		<circle id="XMLID_835_" class="st17" cx="1104.3" cy="653.5" r="11"/>
		<circle id="XMLID_834_" class="st17" cx="1104.3" cy="693.5" r="11"/>
		<circle id="XMLID_833_" class="st17" cx="1104.3" cy="733.5" r="11"/>
		<circle id="XMLID_832_" class="st17" cx="1104.3" cy="773.5" r="11"/>
		<circle id="XMLID_831_" class="st17" cx="1104.3" cy="813.5" r="11"/>
		<circle id="XMLID_830_" class="st17" cx="1104.3" cy="853.5" r="11"/>
		<circle id="XMLID_829_" class="st17" cx="1104.3" cy="893.5" r="11"/>
		<circle id="XMLID_828_" class="st17" cx="1104.3" cy="933.5" r="11"/>
		<circle id="XMLID_827_" class="st17" cx="1104.3" cy="973.5" r="11"/>
		<circle id="XMLID_826_" class="st17" cx="1104.3" cy="1013.5" r="11"/>
		<circle id="XMLID_825_" class="st17" cx="1104.3" cy="1053.5" r="11"/>
		<circle id="XMLID_824_" class="st17" cx="1104.3" cy="1093.5" r="11"/>
		<circle id="XMLID_823_" class="st17" cx="1104.3" cy="1133.5" r="11"/>
		<circle id="XMLID_822_" class="st17" cx="1104.3" cy="1173.5" r="11"/>
		<circle id="XMLID_821_" class="st17" cx="1104.3" cy="1213.5" r="11"/>
		<circle id="XMLID_820_" class="st17" cx="1104.3" cy="1253.5" r="11"/>
	</g>
</g>
<g id="Layer_4_copy_4">
	<g id="XMLID_298_">
		<circle id="XMLID_432_" class="st18" cx="1101.3" cy="211.5" r="11"/>
		<circle id="XMLID_431_" class="st18" cx="1101.3" cy="251.5" r="11"/>
		<circle id="XMLID_430_" class="st18" cx="1101.3" cy="291.5" r="11"/>
		<circle id="XMLID_429_" class="st18" cx="1101.3" cy="331.5" r="11"/>
		<circle id="XMLID_428_" class="st18" cx="1101.3" cy="371.5" r="11"/>
		<circle id="XMLID_427_" class="st18" cx="1101.3" cy="411.5" r="11"/>
		<circle id="XMLID_426_" class="st18" cx="1101.3" cy="451.5" r="11"/>
		<circle id="XMLID_425_" class="st18" cx="1101.3" cy="492.5" r="11"/>
		<circle id="XMLID_424_" class="st18" cx="1101.3" cy="532.5" r="11"/>
		<circle id="XMLID_423_" class="st18" cx="1101.7" cy="572.4" r="11"/>
		<circle id="XMLID_422_" class="st18" cx="1101.3" cy="612.5" r="11"/>
		<circle id="XMLID_421_" class="st18" cx="1101.3" cy="652.5" r="11"/>
		<circle id="XMLID_420_" class="st18" cx="1101.3" cy="692.5" r="11"/>
		<circle id="XMLID_419_" class="st18" cx="1101.3" cy="732.5" r="11"/>
		<circle id="XMLID_418_" class="st18" cx="1101.3" cy="772.5" r="11"/>
		<circle id="XMLID_417_" class="st18" cx="1101.3" cy="812.5" r="11"/>
		<circle id="XMLID_412_" class="st18" cx="1101.3" cy="852.5" r="11"/>
		<circle id="XMLID_411_" class="st18" cx="1101.3" cy="892.5" r="11"/>
		<circle id="XMLID_410_" class="st18" cx="1101.3" cy="932.5" r="11"/>
		<circle id="XMLID_405_" class="st18" cx="1101.3" cy="972.5" r="11"/>
		<circle id="XMLID_404_" class="st18" cx="1101.3" cy="1012.5" r="11"/>
		<circle id="XMLID_403_" class="st18" cx="1101.3" cy="1052.5" r="11"/>
		<circle id="XMLID_402_" class="st18" cx="1101.3" cy="1092.5" r="11"/>
		<circle id="XMLID_401_" class="st18" cx="1101.3" cy="1132.5" r="11"/>
		<circle id="XMLID_306_" class="st18" cx="1101.3" cy="1172.5" r="11"/>
		<circle id="XMLID_304_" class="st18" cx="1101.3" cy="1212.5" r="11"/>
		<circle id="XMLID_302_" class="st18" cx="1101.3" cy="1252.5" r="11"/>
	</g>
</g>
<g id="Layer_4_copy_2" class="st19">
	<circle id="XMLID_125_" class="st20" cx="301.3" cy="211.5" r="11"/>
	<circle id="XMLID_124_" class="st20" cx="301.3" cy="251.5" r="11"/>
	<circle id="XMLID_123_" class="st20" cx="301.3" cy="291.5" r="11"/>
	<circle id="XMLID_122_" class="st20" cx="301.3" cy="331.5" r="11"/>
	<circle id="XMLID_121_" class="st20" cx="301.3" cy="371.5" r="11"/>
	<circle id="XMLID_120_" class="st20" cx="301.3" cy="411.5" r="11"/>
	<circle id="XMLID_119_" class="st20" cx="301.3" cy="451.5" r="11"/>
	<circle id="XMLID_118_" class="st20" cx="301.3" cy="492.5" r="11"/>
	<circle id="XMLID_117_" class="st20" cx="301.3" cy="532.5" r="11"/>
	<circle id="XMLID_116_" class="st20" cx="301.3" cy="572.5" r="11"/>
	<circle id="XMLID_115_" class="st20" cx="301.3" cy="612.5" r="11"/>
	<circle id="XMLID_114_" class="st20" cx="301.3" cy="652.5" r="11"/>
	<circle id="XMLID_113_" class="st20" cx="301.3" cy="692.5" r="11"/>
	<circle id="XMLID_112_" class="st20" cx="301.3" cy="732.5" r="11"/>
	<circle id="XMLID_111_" class="st20" cx="301.3" cy="772.5" r="11"/>
	<circle id="XMLID_110_" class="st20" cx="301.3" cy="812.5" r="11"/>
	<circle id="XMLID_109_" class="st20" cx="301.3" cy="852.5" r="11"/>
	<circle id="XMLID_108_" class="st20" cx="301.3" cy="892.5" r="11"/>
	<circle id="XMLID_107_" class="st20" cx="301.3" cy="932.5" r="11"/>
	<circle id="XMLID_106_" class="st20" cx="301.3" cy="972.5" r="11"/>
	<circle id="XMLID_105_" class="st20" cx="301.3" cy="1012.5" r="11"/>
	<circle id="XMLID_104_" class="st20" cx="301.3" cy="1052.5" r="11"/>
	<circle id="XMLID_103_" class="st20" cx="301.3" cy="1092.5" r="11"/>
	<circle id="XMLID_102_" class="st20" cx="301.3" cy="1132.5" r="11"/>
	<circle id="XMLID_101_" class="st20" cx="301.3" cy="1172.5" r="11"/>
	<circle id="XMLID_100_" class="st20" cx="301.3" cy="1212.5" r="11"/>
	<circle id="XMLID_99_" class="st20" cx="301.3" cy="1252.5" r="11"/>
</g>
</svg>
