<?xml version="1.0" encoding="utf-8"?>
<!-- Generator: Adobe Illustrator 16.0.0, SVG Export Plug-In . SVG Version: 6.00 Build 0)  -->
<!DOCTYPE svg PUBLIC "-//W3C//DTD SVG 1.1//EN" "http://www.w3.org/Graphics/SVG/1.1/DTD/svg11.dtd">
<svg version="1.1" id="Layer_1" xmlns="http://www.w3.org/2000/svg" xmlns:xlink="http://www.w3.org/1999/xlink" x="0px" y="0px"
	 width="141.73px" height="141.73px" viewBox="0 0 141.73 141.73" enable-background="new 0 0 141.73 141.73" xml:space="preserve">
<g id="Dance">
	<path id="XMLID_14_" fill="#FFFFFF" d="M73.004,120.217c-2.923-1.278-3.563-2.649-2.832-5.847
		c1.097-4.477,2.102-8.861,3.289-13.246c1.371-5.025,1.461-10.05,0.366-15.074c-0.366-1.645-0.549-3.197-0.823-4.842
		c-0.09-0.55-0.273-0.823-0.913-1.097c-0.914-0.366-1.736-0.914-2.558-1.371c-0.458-0.273-0.914-0.548-1.371-0.64
		c-4.66-1.188-9.227-2.374-13.887-3.563c-5.116-1.278-8.588-5.664-8.588-10.962c0-5.39,0-10.78,0-16.171
		c0-2.923,2.467-4.75,5.025-3.836c1.553,0.548,2.466,2.01,2.466,3.836c0,5.208,0,10.415,0,15.714c0,2.284,0.914,3.472,3.106,4.02
		c3.289,0.822,6.486,1.644,9.958,2.558c-0.274-1.645-0.548-3.105-0.73-4.567c-0.548-3.106-1.097-6.213-1.645-9.228
		c-0.457-2.649,0.365-4.294,2.741-5.573c0.274-0.183,0.548-0.457,0.822-0.64c2.74-2.832,5.482-5.573,8.13-8.405
		c1.919-2.102,2.65-4.568,2.194-7.4c-0.366-2.375-0.915-4.751-1.371-7.126c-0.457-2.649-0.273-3.197,2.011-4.476
		c0.273,0,0.547,0,0.913,0c1.553,0.64,2.192,1.827,2.466,3.472c0.366,2.284,0.913,4.568,1.279,6.852
		c0.823,4.841-0.366,9.044-3.745,12.607c-1.279,1.371-2.559,2.649-3.837,4.02c-0.184,0.183-0.366,0.457-0.64,0.822
		c0.64,0,1.005,0,1.369,0c11.329,0,22.566,0,33.895,0c1.735,0,3.015,0.457,3.653,2.102c0,0.548,0,1.004,0,1.553
		c-0.821,1.553-2.191,2.01-3.927,2.01c-8.405-0.091-16.811,0-25.216,0c-0.456,0-0.822,0-1.369,0c-0.64,3.38-1.188,6.669-1.736,9.958
		c-0.64,3.38-1.188,6.669-1.827,10.05c-0.092,0.273,0,0.639,0.091,0.913c0.731,4.568,1.553,9.044,2.102,13.611
		c0.548,4.842-0.273,9.502-1.553,14.161c-1.005,3.928-2.011,7.857-2.833,11.786c-0.456,1.918-1.279,3.471-3.197,4.201
		C73.918,120.217,73.461,120.217,73.004,120.217z"/>
	<path id="XMLID_12_" fill="#FFFFFF" d="M54.824,41.649c0-4.567,3.563-8.222,8.039-8.313c4.477,0,8.131,3.746,8.04,8.313
		c0,4.568-3.654,8.223-8.131,8.223C58.387,49.872,54.824,46.125,54.824,41.649z"/>
	
		<circle id="XMLID_10_" fill="none" stroke="#FFFFFF" stroke-width="11" stroke-miterlimit="10" cx="70.903" cy="71.158" r="64.133"/>
</g>
</svg>
