<?xml version="1.0" encoding="utf-8"?>
<!-- Generator: Adobe Illustrator 16.0.0, SVG Export Plug-In . SVG Version: 6.00 Build 0)  -->
<!DOCTYPE svg PUBLIC "-//W3C//DTD SVG 1.1//EN" "http://www.w3.org/Graphics/SVG/1.1/DTD/svg11.dtd">
<svg version="1.1" id="Layer_1" xmlns="http://www.w3.org/2000/svg" xmlns:xlink="http://www.w3.org/1999/xlink" x="0px" y="0px"
	 width="198.43px" height="198.43px" viewBox="0 0 198.43 198.43" enable-background="new 0 0 198.43 198.43" xml:space="preserve">
<g id="Dramatics">
	<path id="XMLID_109_" fill="#FFFFFF" d="M107.117,165.858c-2.779-0.906-5.687-1.418-8.342-2.704
		c-8.092-3.736-11.882-10.681-13.524-19.045c-0.635-3.216-0.759-6.433-0.759-9.655c-0.127-13.124,0-26.123,0-39.248
		c0-5.148,3.79-7.977,8.595-6.307c3.159,1.159,6.194,2.704,9.353,3.863c7.705,2.704,15.293,1.804,22.757-1.544
		c1.89-0.899,3.787-1.671,5.684-2.318c3.408-1.152,5.939-0.125,7.712,3.09c0.124,0.387,0.373,0.646,0.635,0.906
		c0,15.821,0,31.783,0,47.611c-0.262,1.159-0.511,2.443-0.759,3.603c-1.648,8.364-5.436,15.309-13.402,19.045
		c-2.656,1.286-5.691,1.798-8.471,2.704C113.437,165.858,110.276,165.858,107.117,165.858z M95.615,142.053
		c1.77,7.331,8.723,12.093,16.938,11.833c7.837-0.254,14.41-5.274,15.549-11.833C117.23,142.053,106.49,142.053,95.615,142.053z
		 M124.177,124.031c3.793,0,6.828-3.215,6.953-7.33c0.13-3.988-3.028-7.464-6.69-7.599c-3.671-0.126-6.954,3.224-6.954,7.212
		C117.354,120.69,120.258,124.031,124.177,124.031z M106.358,116.701c0-4.122-2.903-7.464-6.698-7.599
		c-3.793-0.126-6.953,3.351-6.953,7.466c0,4.122,3.032,7.463,6.825,7.463C103.323,124.031,106.358,120.816,106.358,116.701z"/>
	<path id="XMLID_106_" fill="#FFFFFF" d="M96.753,58.409c3.284,1.924,4.421,4.761,4.296,8.616
		c-0.254,5.921-0.127,11.967-0.127,18.272c-2.021-1.025-3.794-1.93-5.563-3.082c-6.446-4.249-15.293,0.513-15.924,8.363
		c-0.379,4.888-0.255,9.908-0.379,14.796c0,0.513,0,1.033,0,1.672c-5.691-1.672-11-1.159-15.928,2.317
		c-3.035,2.058-5.057,5.407-5.814,8.75c7.205,0,14.282,0,21.615,0c0,5.918,0,11.579,0,17.373c-15.8,2.57-29.958-4.374-32.358-23.68
		c-0.128-0.772-0.252-1.545-0.38-2.317c0-15.309,0-30.751,0-46.066c0.759-2.184,2.273-3.729,4.17-5.014c1.01,0,2.024,0,3.034,0
		c1.518,0.639,2.908,1.151,4.425,1.798c6.699,3.216,13.651,5.407,21.108,3.603c5.056-1.286,9.861-3.603,14.789-5.4
		C94.604,58.409,95.74,58.409,96.753,58.409z M68.057,86.843c0-4.115-2.907-7.333-6.825-7.333c-3.791,0-6.826,3.217-6.826,7.333
		c0,4.248,3.035,7.59,6.826,7.59C65.15,94.181,68.057,90.965,68.057,86.843z"/>
	<path id="XMLID_7_" fill="none" stroke="#FFFFFF" stroke-width="11" stroke-miterlimit="10" d="M99.533,8.094
		c49.007,0,88.739,40.442,88.739,90.328c0,49.894-39.732,90.336-88.739,90.336s-88.736-40.442-88.736-90.336
		C10.797,48.536,50.526,8.094,99.533,8.094z"/>
</g>
</svg>
