<?xml version="1.0" encoding="utf-8"?>
<!-- Generator: Adobe Illustrator 16.0.0, SVG Export Plug-In . SVG Version: 6.00 Build 0)  -->
<!DOCTYPE svg PUBLIC "-//W3C//DTD SVG 1.1//EN" "http://www.w3.org/Graphics/SVG/1.1/DTD/svg11.dtd">
<svg version="1.1" id="Layer_1" xmlns="http://www.w3.org/2000/svg" xmlns:xlink="http://www.w3.org/1999/xlink" x="0px" y="0px"
	 width="198.43px" height="198.43px" viewBox="0 0 198.43 198.43" enable-background="new 0 0 198.43 198.43" xml:space="preserve">
<g id="Fine_arts">
	<path id="XMLID_287_" fill="#FFFFFF" d="M102.756,135.93c-1.897,0-3.794,0-5.815,0c-0.631-0.126-1.139-0.258-1.769-0.258
		c-9.23-0.77-17.949-3.076-25.789-8.066c-6.191-3.845-11.375-8.709-14.03-15.754c-0.631-1.538-1.011-3.201-1.391-4.864
		c0-1.797,0-3.719,0-5.509c1.138-4.102,4.174-5.891,7.964-6.15c3.54-0.258,7.078-0.258,10.62-0.384
		c2.021-0.126,4.042-0.384,5.939-0.77c0.631-0.125,1.137-1.02,1.769-1.537c-0.503-0.51-1.01-1.279-1.641-1.538
		c-2.025-0.895-4.297-1.664-6.322-2.558c-5.309-2.432-5.939-5.508-2.274-10.121c3.54-4.354,8.216-6.529,13.4-7.681
		c1.011-0.259,2.021-0.385,3.16-0.643c-1.897-2.691-3.667-5.249-5.436-7.682c-0.256-0.258-0.631-0.518-0.887-0.643
		c-4.425-1.028-8.215-5.381-8.467-9.988c-0.127-2.565-0.127-5.123-0.127-7.688c0-1.153,0.759-1.664,1.769-1.279
		c2.401,0.769,4.805,1.663,7.078,2.558c4.425,1.796,7.208,6.92,6.574,11.784c0,0.385,0.127,1.027,0.379,1.413
		c2.404,3.326,4.804,6.786,7.205,10.114c0.379,0.517,1.138,0.901,1.769,0.901c2.528,0.126,4.932,0,7.46,0.126
		c2.149,0.125,4.418,0.384,6.826,0.643C100.352,87.13,90.115,103.527,79.75,120.05c2.148,1.405,4.042,2.691,6.191,3.97
		c10.748-17.292,21.487-34.457,32.359-51.875c-2.649-0.636-5.05-1.279-7.457-1.79c0.131-0.258,0.255-0.384,0.255-0.643
		c2.152-3.46,4.298-6.787,6.318-10.247c0.249-0.384,0.511-1.02,0.38-1.538c-0.883-4.479,1.518-9.729,5.566-11.651
		c2.4-1.153,4.926-2.181,7.326-3.202c1.014-0.384,1.766,0,1.766,1.146c0.131,2.823,0.386,5.641,0.262,8.457
		c-0.131,4.354-3.918,8.967-7.967,9.862c-0.255,0.126-0.759,0.258-0.89,0.51c-1.891,3.076-3.788,6.151-5.809,9.227
		c4.926,1.663,9.479,3.711,13.651,6.528c5.939,4.103,10.492,9.227,12.893,16.264c0.379,1.286,0.759,2.565,1.138,3.844
		c0,2.564,0,5.123,0,7.688c-0.131,0.252-0.255,0.512-0.255,0.637c-1.139,5.641-3.918,10.379-7.836,14.476
		c-7.201,7.296-16.184,11.141-26.04,13.063C108.698,135.161,105.663,135.42,102.756,135.93z M82.278,85.34
		c1.77-0.643,3.54-1.027,5.057-1.921c2.148-1.279,2.148-3.586,0.124-5.123c-2.652-2.048-7.708-2.048-10.237,0
		c-1.897,1.537-2.024,3.844,0,5.123C78.612,84.313,80.506,84.698,82.278,85.34z M84.552,62.667c1.517,2.181,3.035,4.228,4.424,6.276
		c0.76,1.153,1.519,0.895,2.656,0.51c-1.896-2.684-3.793-5.249-5.69-7.939C85.562,61.898,85.186,62.157,84.552,62.667z"/>
	<path id="XMLID_11_" fill="none" stroke="#FFFFFF" stroke-width="11" stroke-miterlimit="10" d="M99.848,8.234
		c49.011,0,88.737,40.259,88.737,89.912c0,49.659-39.727,89.911-88.737,89.911c-49.007,0-88.737-40.252-88.737-89.911
		C11.111,48.493,50.84,8.234,99.848,8.234z"/>
</g>
</svg>
