<?xml version="1.0" encoding="utf-8"?>
<!-- Generator: Adobe Illustrator 16.0.0, SVG Export Plug-In . SVG Version: 6.00 Build 0)  -->
<!DOCTYPE svg PUBLIC "-//W3C//DTD SVG 1.1//EN" "http://www.w3.org/Graphics/SVG/1.1/DTD/svg11.dtd">
<svg version="1.1" id="Layer_1" xmlns="http://www.w3.org/2000/svg" xmlns:xlink="http://www.w3.org/1999/xlink" x="0px" y="0px"
	 width="198.43px" height="198.43px" viewBox="0 0 198.43 198.43" enable-background="new 0 0 198.43 198.43" xml:space="preserve">
<g id="Humor_Fest">
	<path id="XMLID_104_" fill="#FFFFFF" d="M150.46,99.134c0,27.958-22.671,50.45-51.128,50.45c-28.34,0-51.127-22.492-51.127-50.45
		c0-28.087,22.787-50.45,51.375-50.45C127.789,48.684,150.46,71.299,150.46,99.134z M65.837,104.851
		c-1.01,9.813,5.03,20.627,14.734,26.093c12.967,7.33,26.188,7.209,38.909-0.746c8.94-5.716,13.724-13.914,13.854-25.476
		C110.533,111.435,88.248,111.313,65.837,104.851z M120.992,98.137c0.371-4.468-0.124-8.198-2.144-11.433
		c-2.145-3.479-6.804-4.224-9.566-1.492c-3.408,3.486-3.779,7.833-3.532,12.925C110.794,91.302,115.701,91.058,120.992,98.137z
		 M77.04,97.147c3.271-1.621,5.793-3.98,8.438-3.98c2.515,0,5.037,2.488,8.185,4.103c-0.88-3.357-1.512-6.713-2.522-9.941
		c-0.879-2.488-3.017-3.729-5.786-3.729c-2.776,0-4.913,1.241-5.793,3.729C78.551,90.557,77.918,93.913,77.04,97.147z"/>
	<path id="XMLID_5_" fill="none" stroke="#FFFFFF" stroke-width="11" stroke-miterlimit="10" d="M99.332,11.782
		c48.819,0,88.402,39.051,88.402,87.223c0,48.179-39.583,87.23-88.402,87.23c-48.825,0-88.401-39.051-88.401-87.23
		C10.93,50.833,50.506,11.782,99.332,11.782z"/>
</g>
</svg>
