<?xml version="1.0" encoding="utf-8"?>
<!-- Generator: Adobe Illustrator 16.0.0, SVG Export Plug-In . SVG Version: 6.00 Build 0)  -->
<!DOCTYPE svg PUBLIC "-//W3C//DTD SVG 1.1//EN" "http://www.w3.org/Graphics/SVG/1.1/DTD/svg11.dtd">
<svg version="1.1" id="Layer_1" xmlns="http://www.w3.org/2000/svg" xmlns:xlink="http://www.w3.org/1999/xlink" x="0px" y="0px"
	 width="198.43px" height="198.43px" viewBox="0 0 198.43 198.43" enable-background="new 0 0 198.43 198.43" xml:space="preserve">
<g id="Informals">
	<path id="XMLID_197_" fill="#FFFFFF" d="M76.286,154.617c0.378-3.013,0.506-6.019,1.264-9.03c0.63-3.013,3.022-4.396,6.052-4.396
		c-4.414-11.166-2.272-20.826,7.697-27.72c8.331-5.771,18.301-4.396,24.979,0.623c4.172,3.135,6.939,7.277,8.33,12.419
		c1.268,5.018,0.51,9.913-1.762,14.678c0.503,0.13,0.757,0.13,1.129,0.13c2.905,0.5,4.545,2.383,5.054,5.019
		c0.496,2.759,0.757,5.518,1.253,8.277c-0.626,0-1.253,0-1.762,0c-1.764-0.377-3.402-0.877-5.171-1.253
		c-2.775-0.63-5.302-1.76-6.06-4.896l-0.123-0.123c-9.337,6.395-18.549,6.147-27.885-0.377c-0.503,3.636-3.154,4.766-6.184,5.519
		c-1.384,0.376-2.774,0.753-4.162,1.13C77.929,154.617,77.171,154.617,76.286,154.617z M103.162,120.742
		c-0.634,0.883-1.012,1.636-1.646,2.39c-3.153,3.888-7.436,6.018-12.234,7.146c-1.261,0.254-1.639,0.754-1.515,2.007
		c0.502,6.277,3.532,10.789,9.336,13.425c9.343,4.389,21.578-2.006,21.957-13.672c0-1.13-0.379-1.506-1.391-1.76
		C111.61,128.902,106.446,126.267,103.162,120.742z"/>
	<path id="XMLID_194_" fill="#FFFFFF" d="M162.077,119.112c-3.91-0.999-7.944-2.006-11.731-3.135
		c-1.26-0.377-2.272-0.254-3.402,0.253c-9.845,4.888-22.21,1.506-28.008-7.777c-6.692-10.542-3.284-24.337,7.945-30.616
		c10.473-5.771,23.589-2.006,29.647,8.53c2.396,4.142,3.153,8.661,2.52,13.302c0,0.376-0.123,0.876,0.131,1.129
		c1.894,2.006,2.396,4.512,2.898,7.147c0,0.254,0.132,0.63,0.255,0.884C162.077,112.342,162.077,115.724,162.077,119.112z
		 M143.281,92.892L143.281,92.892c-0.502-0.246-1.005-0.5-1.515-0.623c-3.153-1.383-5.928-3.266-7.698-6.277
		c-0.757-1.253-1.384-2.506-2.017-3.759c-7.318,2.129-11.863,10.536-9.963,18.19c2.011,8.407,10.721,13.549,19.044,11.542
		c7.697-1.882,13.123-9.659,11.739-17.437C149.588,93.898,146.435,93.399,143.281,92.892z"/>
	<path id="XMLID_191_" fill="#FFFFFF" d="M46.639,91.763c0.63-1.629,1.259-3.259,2.017-4.888
		c4.417-9.536,15.013-14.555,25.235-11.796c9.084,2.383,15.646,10.413,16.279,19.573c0.758,11.918-8.455,22.079-20.441,22.955
		c-9.715,0.63-19.305-5.642-22.332-15.431c-0.127-0.623-0.506-1.13-0.757-1.753C46.639,97.534,46.639,94.652,46.639,91.763z
		 M78.431,84.116c-2.145,1.752-3.911,3.512-6.055,5.018c-2.145,1.376-4.417,2.505-6.686,3.758c1.008,1.26,1.515,2.636,0.379,4.142
		c-0.757,1.006-1.766,1.629-3.157,1.383c-2.141-0.506-2.774-2.013-2.774-4.019c-2.647,0.376-5.047,0.753-7.443,1.129
		c-0.505,7.024,4.542,13.678,10.852,15.308c8.452,2.259,16.021-1.13,19.299-9.037C85.502,95.651,83.856,88.25,78.431,84.116z"/>
	<path id="XMLID_188_" fill="#FFFFFF" d="M113.883,37.822c-0.372,2.129-0.758,4.266-1.261,6.395
		c-0.255,1.007,0.379,1.26,0.889,1.506c4.034,2.137,7.063,5.271,9.081,9.16c4.165,8.154,2.526,17.69-3.787,24.462
		c-6.438,7.023-17.536,8.66-25.481,4.642c-12.752-6.395-16.531-22.832-6.693-33.622c1.391-1.629,3.153-2.882,4.922-4.135
		c2.396-1.636,4.799-3.389,7.319-4.642c2.272-1.26,4.792-2.013,7.313-2.889c0.386-0.124,0.888,0.253,1.391,0.753
		c1.516-0.63,3.029-1.13,4.421-1.76C112.622,37.822,113.255,37.822,113.883,37.822z M110.983,77.968
		c5.295-2.76,8.957-9.16,7.319-17.191c-1.392-6.271-7.574-11.289-14.383-11.666c-7.443-0.376-14.136,4.643-16.022,11.543
		c-1.77,6.524,1.129,13.802,7.188,17.314c1.763-5.396,4.165-7.531,8.455-7.401C107.072,70.814,109.724,73.326,110.983,77.968z"/>
	<path id="XMLID_172_" fill="#FFFFFF" d="M107.954,133.921c-1.894,0-3.408-1.506-3.408-3.266c0-1.506,1.77-3.259,3.408-3.259
		c1.646,0,3.16,1.506,3.16,3.136C111.114,132.285,109.6,133.791,107.954,133.921z"/>
	<path id="XMLID_171_" fill="#FFFFFF" d="M98.363,133.921c-1.763,0-3.277-1.383-3.277-3.266c0-1.753,1.638-3.259,3.277-3.259
		c1.639,0,3.153,1.63,3.153,3.259C101.647,132.285,100.133,133.791,98.363,133.921z"/>
	<path id="XMLID_170_" fill="#FFFFFF" d="M132.685,92.892c1.771,0,3.154,1.383,3.277,3.136c0,1.636-1.638,3.389-3.277,3.389
		c-1.645,0-3.159-1.629-3.159-3.389C129.4,94.398,130.916,92.892,132.685,92.892z"/>
	<path id="XMLID_169_" fill="#FFFFFF" d="M143.281,92.892c0.51,0.377,0.882,0.753,1.392,1.26c1.005,1.13,1.005,2.506,0.247,3.635
		c-0.882,1.383-2.272,1.883-3.401,1.506c-1.515-0.5-2.396-1.506-2.396-3.013C138.992,93.775,140.252,92.892,143.281,92.892
		L143.281,92.892z"/>
	<path id="XMLID_168_" fill="#FFFFFF" d="M73.005,98.417c-1.766,0-3.277-1.383-3.277-3.012s1.387-3.266,3.026-3.266
		c1.766-0.123,3.407,1.383,3.532,3.266C76.286,96.911,74.775,98.417,73.005,98.417z"/>
	<path id="XMLID_167_" fill="#FFFFFF" d="M110.853,64.042c0,1.63-1.384,3.006-3.153,3.006c-1.639,0-3.029-1.499-3.029-3.136
		c0-1.629,1.391-2.882,3.029-2.882C109.6,60.907,110.983,62.284,110.853,64.042z"/>
	<path id="XMLID_166_" fill="#FFFFFF" d="M98.363,67.048c-1.639,0-2.898-1.376-2.898-3.006c0-1.759,1.384-3.136,3.029-3.012
		c1.639,0,2.898,1.376,3.022,3.012C101.393,65.549,100.002,67.048,98.363,67.048z"/>
	<path id="XMLID_2_" fill="none" stroke="#FFFFFF" stroke-width="11" stroke-miterlimit="10" d="M98.494,11.478
		c48.919,0,88.569,39.427,88.569,88.069c0,48.635-39.65,88.062-88.569,88.062c-48.915,0-88.57-39.427-88.57-88.062
		C9.924,50.905,49.579,11.478,98.494,11.478z"/>
</g>
</svg>
