<?xml version="1.0" encoding="utf-8"?>
<!-- Generator: Adobe Illustrator 16.0.0, SVG Export Plug-In . SVG Version: 6.00 Build 0)  -->
<!DOCTYPE svg PUBLIC "-//W3C//DTD SVG 1.1//EN" "http://www.w3.org/Graphics/SVG/1.1/DTD/svg11.dtd">
<svg version="1.1" id="Layer_1" xmlns="http://www.w3.org/2000/svg" xmlns:xlink="http://www.w3.org/1999/xlink" x="0px" y="0px"
	 width="198.43px" height="198.43px" viewBox="0 0 198.43 198.43" enable-background="new 0 0 198.43 198.43" xml:space="preserve">
<g id="Literary">
	<path id="XMLID_260_" fill="#FFFFFF" d="M61.731,101.279c3.314-1.157,6.89-2.054,9.95-3.597
		c8.806-4.496,15.696-11.311,22.075-18.759c0.512-0.646,1.024-1.157,1.531-1.803c5.616,3.984,11.225,7.967,16.845,11.95
		c-5.62,6.558-7.652,14.522-8.677,22.616c-0.766,5.399-1.02,10.8-1.531,16.452c-13.78,0.259-25.904,5.653-36.75,14.649
		c0.254-0.386,0.383-0.771,0.637-1.156c5.87-8.738,11.741-17.477,17.481-26.214c0.513-0.771,1.021-1.157,1.916-1.157
		c1.403-0.134,2.423-1.031,2.807-2.441c0.383-1.29-0.637-3.212-1.786-3.729c-1.404-0.64-2.553-0.127-3.701,0.77
		c-1.021,1.031-0.892,2.189-0.508,3.473c0.125,0.512,0.125,1.283-0.129,1.669c-5.996,9.382-12.123,18.632-18.118,28.016
		c-0.129,0.126-0.254,0.26-0.512,0.386c0.512-2.699,1.149-5.14,1.661-7.714c1.786-10.281,1.786-20.428-1.916-30.323
		c-0.383-0.897-0.895-1.669-1.273-2.573C61.731,101.539,61.731,101.406,61.731,101.279z"/>
	<path id="XMLID_259_" fill="#FFFFFF" d="M136.762,78.152c-5.487,5.14-10.849,10.147-16.462,15.421
		c-2.938-2.062-5.745-4.116-8.551-6.045c-7.91-5.653-15.821-11.179-23.734-16.831c-0.892-0.646-1.149-1.157-0.767-2.188
		c2.169-6.55,4.085-13.106,6.253-19.656c0.129-0.26,0.129-0.646,0.129-0.905c0.125,0,0.254,0,0.254,0
		c0.255,0.259,0.383,0.385,0.637,0.645c13.78,9.636,27.562,19.278,41.217,28.914c0.257,0.26,0.633,0.26,0.898,0.386
		C136.762,77.893,136.762,78.019,136.762,78.152z"/>
	<path id="XMLID_13_" fill="none" stroke="#FFFFFF" stroke-width="11" stroke-miterlimit="10" d="M99.243,9.91
		c49.475,0,89.577,40.394,89.577,90.212c0,49.826-40.103,90.213-89.577,90.213c-49.472,0-89.574-40.387-89.574-90.213
		C9.669,50.304,49.771,9.91,99.243,9.91z"/>
</g>
</svg>
