<?xml version="1.0" encoding="utf-8"?>
<!-- Generator: Adobe Illustrator 16.0.0, SVG Export Plug-In . SVG Version: 6.00 Build 0)  -->
<!DOCTYPE svg PUBLIC "-//W3C//DTD SVG 1.1//EN" "http://www.w3.org/Graphics/SVG/1.1/DTD/svg11.dtd">
<svg version="1.1" id="Layer_1" xmlns="http://www.w3.org/2000/svg" xmlns:xlink="http://www.w3.org/1999/xlink" x="0px" y="0px"
	 width="198.43px" height="198.43px" viewBox="0 0 198.43 198.43" enable-background="new 0 0 198.43 198.43" xml:space="preserve">
<g id="Music">
	<path id="XMLID_98_" fill="#FFFFFF" d="M40.396,131.53c0.388-1.284,0.645-2.701,1.162-3.984c1.549-3.731,4.387-6.426,7.873-8.488
		c3.482-2.056,7.095-3.599,10.967-4.372c2.708-0.511,4.773-1.795,6.063-3.983c2.067-3.34,4-6.813,5.936-10.286
		c1.55-2.567,2.968-5.142,4.774-7.583c1.419-1.796,3.222-3.086,5.039-4.497c0.64-0.519,1.414-0.772,2.316-0.898
		c2.711-0.646,4.261,0.898,3.486,3.599c-0.127,0.639-0.387,1.158-0.774,1.67c-2.838,4.244-1.295,7.458,1.288,10.284
		c0.387,0.386,0.775,0.772,1.289,1.284c1.81-1.804,3.486-3.472,5.169-5.143c13.415-13.498,26.835-26.996,40.25-40.367
		c0.774-0.772,1.422-1.543,1.169-2.827c-0.261-1.284,0.514-2.057,1.675-2.701c4.648-2.441,9.162-4.883,13.802-7.324
		c2.973-1.676,4.268-1.292,6.197,1.543c0,0.765,0,1.669,0,2.442c-0.901,1.41-2.324,2.182-4,2.441
		c-2.063,0.386-3.352,1.795-4.387,3.726c-1.035,1.929-2.19,3.859-3.612,5.402s-3.352,2.315-5.422,1.796
		c-1.154-0.253-1.676,0.133-2.323,0.905c-9.803,10.669-19.611,21.341-29.42,31.878c-6.189,6.686-12.252,13.372-18.449,20.057
		c-0.253,0.26-0.388,0.512-0.648,0.646c2.07,3.985,6.323,6.04,9.682,4.623c0.515-0.252,1.036-0.638,1.542-0.897
		c0.774-0.387,1.424-0.771,2.197-1.032c1.675-0.385,3.099,0.646,2.711,2.316c-0.261,1.543-1.036,3.086-2.063,4.118
		c-1.421,1.409-3.226,2.307-4.9,3.339c-2.197,1.417-4.647,2.574-6.845,3.985c-3.099,1.928-4.9,4.629-5.675,8.354
		c-0.648,3.599-1.937,7.071-3.486,10.284c-2.45,5.269-6.063,9.261-11.998,10.544c-1.033,0-2.063,0-3.099,0
		c-2.193-0.771-4.513-1.283-6.45-2.44c-7.097-3.859-12.385-9.772-17.034-16.332c-2.194-3.214-3.482-6.813-4.126-10.538
		C40.396,132.94,40.396,132.169,40.396,131.53z M64.268,144.383c1.162-1.157,2.066-2.181,3.099-3.339
		c-2.324-2.441-4.519-4.631-6.581-6.946c-1.161,1.031-2.193,2.063-3.354,3.087C59.754,139.627,61.948,141.941,64.268,144.383z
		 M84.526,122.915c0,0,0.26-0.771,0-1.023c-2.19-2.063-4.387-3.992-6.58-6.048c-0.518,0.134-0.775,0.646,0.131,1.291
		C80.139,119.19,82.335,120.986,84.526,122.915z M78.202,129.342c0.13,0,0.388,0,0.519,0c0-0.387,0.256-1.024,0.13-1.283
		c-2.067-2.182-4.13-4.371-6.196-6.554c-0.127,0-0.385,0.127-0.515,0.127c0,0.512-0.257,1.157,0,1.41
		C74.076,125.23,76.14,127.286,78.202,129.342z M73.816,134.231c-2.582-2.188-4.901-4.244-7.482-6.561c0,0.388-0.261,1.032,0,1.284
		c2.194,2.063,4.387,3.985,6.58,5.915c-0.13,0.133-0.26,0.259-0.387,0.52C72.914,135.129,73.171,134.87,73.816,134.231z"/>
	<path id="XMLID_55_" fill="#FFFFFF" d="M151.878,42.701c0.134,0.253,0.521,0.638,0.521,0.897c0,0.513-0.26,1.024-0.521,1.411
		c-0.253,0.259-0.901,0.259-1.154,0c-0.395-0.252-0.521-0.771-0.647-1.284c0-0.386,0.253-0.771,0.387-1.158
		C150.851,42.701,151.371,42.701,151.878,42.701z"/>
	<path id="XMLID_54_" fill="#FFFFFF" d="M145.302,46.04c0.774-0.512,1.422-1.158,1.802-1.158c0.521,0,1.297,0.899,1.169,1.284
		c-0.134,0.519-0.774,1.158-1.295,1.291C146.464,47.457,145.949,46.685,145.302,46.04z"/>
	<path id="XMLID_53_" fill="#FFFFFF" d="M140.4,50.538c-0.773,0.645-1.295,1.29-1.676,1.29c-0.521,0-1.296-0.771-1.296-1.157
		c0.127-0.52,0.774-1.157,1.296-1.291C139.105,49.253,139.627,50.025,140.4,50.538z"/>
	<path id="XMLID_52_" fill="#FFFFFF" d="M142.851,46.552c0.648,0.905,1.289,1.417,1.162,1.803c-0.133,0.512-0.773,0.898-1.288,1.411
		c-0.395-0.512-1.035-0.899-1.035-1.411C141.689,47.842,142.33,47.324,142.851,46.552z"/>
	<path id="XMLID_9_" fill="none" stroke="#FFFFFF" stroke-width="11" stroke-miterlimit="10" d="M99.236,8.76
		c50.023,0,90.583,40.402,90.583,90.247c0,49.838-40.56,90.247-90.583,90.247c-50.026,0-90.583-40.409-90.583-90.247
		C8.653,49.162,49.209,8.76,99.236,8.76z"/>
</g>
</svg>
