<?xml version="1.0" encoding="utf-8"?>
<!-- Generator: Adobe Illustrator 16.0.0, SVG Export Plug-In . SVG Version: 6.00 Build 0)  -->
<!DOCTYPE svg PUBLIC "-//W3C//DTD SVG 1.1//EN" "http://www.w3.org/Graphics/SVG/1.1/DTD/svg11.dtd">
<svg version="1.1" id="Layer_1" xmlns="http://www.w3.org/2000/svg" xmlns:xlink="http://www.w3.org/1999/xlink" x="0px" y="0px"
	 width="198.43px" height="198.43px" viewBox="0 0 198.43 198.43" enable-background="new 0 0 198.43 198.43" xml:space="preserve">
<g id="Photography">
	<path id="XMLID_84_" fill="#FFFFFF" d="M158.72,65.358c0,24.228,0,48.582,0,72.802c-2.075,3.909-5.318,5.082-9.475,4.946
		c-8.949-0.127-17.9,0-26.851,0c-0.778,0-1.558-0.127-2.336,0.136c-4.936,1.691-9.736,3.383-14.665,5.074c-3.373,0-6.748,0-10.122,0
		c-4.411-1.429-8.954-2.864-13.365-4.293c-1.167-0.392-2.463-0.917-3.632-0.917c-9.082-0.127-18.166-0.127-27.247,0
		c-4.411,0.136-7.527-1.3-9.343-5.337c0-23.964,0-47.921,0-71.886c2.075-4.69,5.969-6.253,10.639-5.472
		c1.299-4.69,2.595-5.601,7.138-5.601c2.074,0,4.28-0.256,6.358,0.135c1.558,0.256,3.112,1.429,4.28,2.473
		c0.648,0.647,0.779,1.955,1.037,2.737c2.337,0,4.674,0,7.007,0c0-2.48,0.131-4.826,0-7.036c-0.258-3.383,0.91-5.863,3.763-7.426
		c12.197,0,24.529,0,36.722,0c3.116,2.089,3.767,5.081,3.505,8.599c-0.134,1.954,0,3.909,0,6.119c1.169,0,1.947,0,2.854,0
		c7.917,0,15.698,0.263,23.614-0.128C153.268,60.021,156.517,61.193,158.72,65.358z M134.063,107.814
		c0-18.883-15.181-33.985-33.859-33.985c-18.814,0-33.996,15.237-33.868,34.248c0,18.755,15.312,33.856,33.995,33.856
		C119.152,141.934,134.199,126.696,134.063,107.814z M100.204,51.038c-2.337,0-4.542,0-6.879,0
		c-3.764,0.128-5.838,2.211-5.838,6.119c0,4.299,1.816,6.645,5.711,6.773c4.801,0.128,9.471,0.128,14.271,0
		c3.767-0.128,5.707-2.474,5.707-6.645c0-3.902-2.074-6.119-5.707-6.248C104.877,50.903,102.537,51.038,100.204,51.038z
		 M149.642,78.647c0-4.036-3.242-7.298-7.265-7.298c-4.021,0-7.272,3.262-7.272,7.298c0,4.165,3.251,7.42,7.399,7.42
		C146.526,85.939,149.642,82.684,149.642,78.647z"/>
	<path id="XMLID_74_" fill="#FFFFFF" d="M73.604,107.949c0-14.718,11.935-26.7,26.6-26.7c14.657,0,26.857,12.245,26.729,26.956
		c-0.134,14.719-12.072,26.572-26.729,26.572C85.412,134.643,73.604,122.66,73.604,107.949z"/>
	<path id="XMLID_4_" fill="none" stroke="#FFFFFF" stroke-width="11" stroke-miterlimit="10" d="M98.905,7.019
		c50.305,0,91.083,40.928,91.083,91.422c0,50.494-40.778,91.422-91.083,91.422c-50.306,0-91.088-40.928-91.088-91.422
		C7.817,47.947,48.599,7.019,98.905,7.019z"/>
</g>
</svg>
