<?xml version="1.0" encoding="utf-8"?>
<!-- Generator: Adobe Illustrator 16.0.0, SVG Export Plug-In . SVG Version: 6.00 Build 0)  -->
<!DOCTYPE svg PUBLIC "-//W3C//DTD SVG 1.1//EN" "http://www.w3.org/Graphics/SVG/1.1/DTD/svg11.dtd">
<svg version="1.1" id="Layer_1" xmlns="http://www.w3.org/2000/svg" xmlns:xlink="http://www.w3.org/1999/xlink" x="0px" y="0px"
	 width="198.43px" height="198.43px" viewBox="0 0 198.43 198.43" enable-background="new 0 0 198.43 198.43" xml:space="preserve">
<g id="Quiz">
	<path id="XMLID_6_" fill="none" stroke="#FFFFFF" stroke-width="11" stroke-miterlimit="10" d="M100.063,6.837
		c50.948,0,92.259,41.161,92.259,91.925c0,50.771-41.311,91.925-92.259,91.925c-50.956,0-92.263-41.153-92.263-91.925
		C7.801,47.998,49.107,6.837,100.063,6.837z"/>
	<path id="XMLID_121_" fill="#FFFFFF" d="M85.863,85.543c0-6.024,0-11.92,0-17.944c28.257,0,56.385,0,84.901,0
		c0,5.76,0,11.784,0,17.944C142.636,85.543,114.386,85.543,85.863,85.543z"/>
	<path id="XMLID_120_" fill="#FFFFFF" d="M85.992,98.369c20.239,0,40.349,0,60.588,0c0,6.024,0,11.92,0,18.072
		c-20.11,0-40.213,0-60.588,0C85.992,110.553,85.992,104.529,85.992,98.369z"/>
	<path id="XMLID_119_" fill="#FFFFFF" d="M115.568,146.434c-9.854,0-19.579,0-29.576,0c0-6.024,0-11.92,0-17.944
		c9.725,0,19.587,0,29.576,0C115.568,134.249,115.568,140.145,115.568,146.434z"/>
	<path id="XMLID_25_" fill="#FFFFFF" d="M40.131,117.099c3.285-3.273,6.702-6.682,10.12-10.083
		c-3.417-3.408-6.835-6.81-10.251-10.083c1.315-1.308,2.628-2.623,3.811-3.801c3.285,3.272,6.702,6.681,10.253,10.218
		c3.542-3.537,6.963-6.945,10.248-10.347c1.313,1.308,2.503,2.487,3.679,3.666c-3.414,3.408-6.827,6.681-10.248,10.211
		c3.549,3.537,6.964,6.811,10.248,10.219c-1.313,1.309-2.496,2.487-3.808,3.794c-3.292-3.272-6.707-6.673-10.12-10.211
		c-3.418,3.538-6.835,6.81-10.12,10.211C42.627,119.714,41.314,118.407,40.131,117.099z"/>
	<path id="XMLID_20_" fill="#FFFFFF" d="M41.971,76.238c1.445-1.308,2.891-2.615,4.335-3.922c2.105,2.222,4.074,4.58,6.308,6.938
		c5.394-5.238,10.779-10.348,15.907-15.321c1.441,1.307,2.884,2.487,4.333,3.794c0,0.135,0.128,0.264,0.128,0.393
		c-0.257,0.136-0.523,0.264-0.789,0.393c-5.78,5.631-11.561,11.134-17.341,16.764c-1.71,1.572-3.288,1.572-4.866-0.128
		c-2.363-2.623-4.862-5.374-7.226-7.99C42.366,76.768,42.233,76.503,41.971,76.238z"/>
	<path id="XMLID_8_" fill="#FFFFFF" d="M41.971,138.443c1.445-1.314,2.891-2.622,4.335-3.93c2.105,2.222,4.074,4.58,6.308,6.938
		c5.394-5.238,10.779-10.34,15.907-15.321c1.441,1.308,2.884,2.487,4.333,3.802c0,0.129,0.128,0.258,0.128,0.394
		c-0.257,0.129-0.523,0.257-0.789,0.393c-5.78,5.631-11.561,11.127-17.341,16.758c-1.71,1.571-3.288,1.571-4.866-0.129
		c-2.363-2.622-4.862-5.374-7.226-7.989C42.366,139.094,42.233,138.837,41.971,138.443z"/>
</g>
</svg>
