<?xml version="1.0" encoding="utf-8"?>
<!-- Generator: Adobe Illustrator 16.0.0, SVG Export Plug-In . SVG Version: 6.00 Build 0)  -->
<!DOCTYPE svg PUBLIC "-//W3C//DTD SVG 1.1//EN" "http://www.w3.org/Graphics/SVG/1.1/DTD/svg11.dtd">
<svg version="1.1" id="Layer_1" xmlns="http://www.w3.org/2000/svg" xmlns:xlink="http://www.w3.org/1999/xlink" x="0px" y="0px"
	 width="198.43px" height="198.43px" viewBox="0 0 198.43 198.43" enable-background="new 0 0 198.43 198.43" xml:space="preserve">
<g id="Social">
	<path id="XMLID_45_" fill="#FFFFFF" d="M77.164,38.208c15.003,0,30.14,0,45.142,0c0.135,1.054,0.263,1.972,0.263,3.026
		c0,11.956,0,23.918,0,36.01c0,0.919,0,1.972,0,3.02c1.567,0,2.606,0,3.518,0c13.442,0,26.885,0,40.32,0
		c1.047,0,2.215,0.266,3.261,0.395c0,13.275,0,26.551,0,39.826c-1.046,0.129-2.214,0.523-3.261,0.523c-13.436,0-26.878,0-40.32,0
		c-1.04,0-2.215,0-3.518,0c0,1.441,0,2.366,0,3.414c0,11.964,0,23.919,0,35.882c0,1.972-0.526,2.761-3.005,2.761
		c-13.306-0.137-26.486-0.137-39.79,0c-2.61,0-3.133-0.789-3.133-2.89c0.132-11.963,0-23.919,0-35.882c0-0.919,0-1.973,0-3.285
		c-15.788,0-31.182,0-46.579,0c0-13.799,0-27.204,0-40.873c15.657,0,31.054,0,46.579,0c0-6.707,0-13.01,0-19.451
		C77.033,53.19,77.164,45.702,77.164,38.208z M100.518,74.612c-0.391,0-0.918,0-1.303,0.137
		c-4.179,8.276-8.352,16.689-12.395,24.965c-1.438,2.89-2.481,5.917-3.393,9.073c-1.567,6.046,1.174,12.092,6.917,15.635
		c5.738,3.421,13.435,3.421,19.046-0.129c5.739-3.551,8.479-9.597,6.785-15.643c-0.783-2.625-1.566-5.387-2.876-7.882
		C109.126,92.09,104.825,83.419,100.518,74.612z"/>
	<path id="XMLID_39_" fill="#FFFFFF" d="M87.21,106.42c0.392,8.937,4.828,14.459,13.828,17.349c-4.437,0.789-9-0.788-12.004-4.21
		C85.645,115.88,85.121,111.677,87.21,106.42z"/>
	<path id="XMLID_3_" fill="none" stroke="#FFFFFF" stroke-width="11" stroke-miterlimit="10" d="M101.038,8.508
		c50.588,0,91.591,41.304,91.591,92.261c0,50.95-41.003,92.261-91.591,92.261c-50.584,0-91.588-41.311-91.588-92.261
		C9.45,49.812,50.454,8.508,101.038,8.508z"/>
</g>
</svg>
